<?xml version="1.0" encoding="UTF-8"?>
<svg version="1.1" xmlns="http://www.w3.org/2000/svg" width="392" height="250">
<path d="M0 0 C129.36 0 258.72 0 392 0 C392 82.5 392 165 392 250 C262.64 250 133.28 250 0 250 C0 167.5 0 85 0 0 Z " fill="#FEFDFD" transform="translate(0,0)"/>
<path d="M0 0 C1.97770502 0.71528507 3.95556757 1.43013478 5.93359375 2.14453125 C6.88403564 2.4914502 7.83447754 2.83836914 8.8137207 3.19580078 C15.30584403 5.53801634 21.82115157 7.58883562 28.49609375 9.34375 C30.5625 10.1875 30.5625 10.1875 32.5625 13.1875 C36.16353926 30.28132217 36.16353926 30.28132217 34.5625 37.1875 C32.7265625 39.01953125 32.7265625 39.01953125 30.5625 40.1875 C26.71400841 38.90466947 26.44823184 37.60501118 24.5 34.125 C18.19085202 23.94852909 9.65321826 19.09652365 -1.4375 15.1875 C-2.84708984 14.63642578 -2.84708984 14.63642578 -4.28515625 14.07421875 C-15.17766866 11.01027784 -28.64009422 12.48456539 -38.4921875 17.8515625 C-50.45921347 25.34214484 -59.02603588 35.29181407 -62.4375 49.1875 C-64.60879547 63.98999749 -62.11241355 76.67455912 -53.625 89.0625 C-46.73901757 97.90122372 -38.87849082 104.28888172 -27.7109375 106.80078125 C-16.57115501 108.11681761 -4.39469443 108.97026265 5.5625 103.1875 C6.38621094 102.775 7.20992187 102.3625 8.05859375 101.9375 C18.81657541 96.17371074 25.39038849 87.51419631 29.5625 76.1875 C29.94921875 75.33027344 30.3359375 74.47304687 30.734375 73.58984375 C31.7456745 69.43492931 31.38732494 65.92060413 31.07714844 61.68310547 C30.23933323 48.49055154 30.23933323 48.49055154 32.76513672 44.09423828 C35.29319993 41.28465712 38.12544237 39.30713005 41.328125 37.3359375 C44.87211784 34.98183598 46.5242674 32.89020617 48.5625 29.1875 C48.98236946 26.47586222 48.98236946 26.47586222 48.5625 24.1875 C47.06506881 22.69006881 45.57425761 22.85547307 43.5 22.625 C42.200625 22.480625 40.90125 22.33625 39.5625 22.1875 C39.5625 21.5275 39.5625 20.8675 39.5625 20.1875 C50.28228116 19.57201017 50.28228116 19.57201017 54.8125 21.75 C57.2187212 25.10152238 57.05965177 27.13926413 56.5625 31.1875 C54.51376067 39.38245731 47.17658761 44.47380278 40.63671875 49.09765625 C37.92901214 51.42297944 37.92901214 51.42297944 37.5625 57.1875 C59.3425 57.1875 81.1225 57.1875 103.5625 57.1875 C103.5625 67.7475 103.5625 78.3075 103.5625 89.1875 C86.4025 89.1875 69.2425 89.1875 51.5625 89.1875 C51.5625 97.7675 51.5625 106.3475 51.5625 115.1875 C67.7325 115.1875 83.9025 115.1875 100.5625 115.1875 C100.5625 125.4175 100.5625 135.6475 100.5625 146.1875 C84.7225 146.1875 68.8825 146.1875 52.5625 146.1875 C52.5625 154.4375 52.5625 162.6875 52.5625 171.1875 C69.0625 171.1875 85.5625 171.1875 102.5625 171.1875 C102.5625 182.0775 102.5625 192.9675 102.5625 204.1875 C73.1925 204.1875 43.8225 204.1875 13.5625 204.1875 C13.5625 175.4775 13.5625 146.7675 13.5625 117.1875 C5.46353216 121.96841151 5.46353216 121.96841151 4.5625 126.98410034 C4.52199215 128.42356345 4.52452503 129.86466706 4.5625 131.30419922 C4.55157822 132.09511459 4.54065643 132.88602997 4.52940369 133.70091248 C4.5028199 136.29933146 4.5322904 138.89386112 4.5625 141.4921875 C4.55497814 143.29966984 4.54394126 145.10714067 4.52954102 146.9145813 C4.50114662 151.65952545 4.52037095 156.40311798 4.54962158 161.14801025 C4.57480616 166.84748213 4.54065959 172.54687212 4.51649475 178.24630737 C4.48645358 186.89415803 4.53162516 195.53868656 4.5625 204.1875 C-8.6375 204.1875 -21.8375 204.1875 -35.4375 204.1875 C-35.4375 177.4575 -35.4375 150.7275 -35.4375 123.1875 C-37.0875 122.5275 -38.7375 121.8675 -40.4375 121.1875 C-47.70157285 114.62713421 -60.50704605 102.42249345 -61.4375 92.1875 C-62.200625 92.043125 -62.96375 91.89875 -63.75 91.75 C-66.4375 91.1875 -66.4375 91.1875 -69.4375 90.1875 C-72.37105514 89.96294509 -75.30870473 90.00235116 -78.25 90 C-79.04470703 89.98775391 -79.83941406 89.97550781 -80.65820312 89.96289062 C-90.40118187 89.9387145 -98.720311 93.57531692 -105.71875 100.41796875 C-115.67419138 112.1007535 -116.50237123 123.89934942 -115.66064453 138.72851562 C-115.20534357 143.74579279 -113.92124838 147.82991779 -111.4375 152.1875 C-110.93992188 153.06535156 -110.44234375 153.94320312 -109.9296875 154.84765625 C-106.06770434 160.9459971 -101.78640332 164.8066253 -95.4375 168.1875 C-93.705 169.115625 -93.705 169.115625 -91.9375 170.0625 C-82.75092671 173.13696441 -70.69468471 172.28216063 -61.87109375 168.53515625 C-58.41696464 166.62235602 -55.40564821 164.33780258 -52.41015625 161.7734375 C-50.49537017 160.23402532 -48.66920249 159.19600985 -46.4375 158.1875 C-46.4375 157.5275 -46.4375 156.8675 -46.4375 156.1875 C-45.7775 156.1875 -45.1175 156.1875 -44.4375 156.1875 C-44.4375 170.0475 -44.4375 183.9075 -44.4375 198.1875 C-49.93288416 200.93519208 -53.97224013 202.83288693 -59.6875 204.375 C-60.86828125 204.69855469 -62.0490625 205.02210938 -63.265625 205.35546875 C-64.31234375 205.63003906 -65.3590625 205.90460938 -66.4375 206.1875 C-67.36393311 206.45228149 -67.36393311 206.45228149 -68.30908203 206.72241211 C-84.63861303 210.29063378 -104.37353502 207.59114717 -118.9375 199.375 C-120.46170937 198.34753125 -121.96230234 197.28417594 -123.4375 196.1875 C-124.67693359 195.29224609 -124.67693359 195.29224609 -125.94140625 194.37890625 C-141.88651476 182.28009873 -152.11527411 165.61631218 -156.078125 146.01953125 C-157.56634519 130.15057461 -158.39645158 113.84180015 -151.4375 99.1875 C-150.76847656 97.61742188 -150.76847656 97.61742188 -150.0859375 96.015625 C-142.9128666 80.22685442 -130.01549647 67.59228756 -114.4375 60.1875 C-113.68855469 59.79820313 -112.93960938 59.40890625 -112.16796875 59.0078125 C-102.125071 54.04969721 -91.18098831 53.89376877 -80.1875 54.0625 C-78.48013672 54.07603516 -78.48013672 54.07603516 -76.73828125 54.08984375 C-73.97112119 54.1130972 -71.2044324 54.14577132 -68.4375 54.1875 C-68.36402344 52.71216797 -68.36402344 52.71216797 -68.2890625 51.20703125 C-67.84601596 42.79120285 -67.25494535 34.39378081 -66.5 26 C-66.42539551 25.11610596 -66.35079102 24.23221191 -66.27392578 23.3215332 C-66.19513184 22.47937256 -66.11633789 21.63721191 -66.03515625 20.76953125 C-65.96820557 20.02936768 -65.90125488 19.2892041 -65.83227539 18.52661133 C-65.32316972 15.51007364 -64.70608439 12.98500811 -63.4375 10.1875 C-61.109375 8.8671875 -61.109375 8.8671875 -58.1875 8.0625 C-57.11226074 7.75119141 -56.03702148 7.43988281 -54.92919922 7.11914062 C-53.77693848 6.81169922 -52.62467773 6.50425781 -51.4375 6.1875 C-49.06448948 5.51257416 -46.69209487 4.83547912 -44.3203125 4.15625 C-43.15016602 3.82753906 -41.98001953 3.49882812 -40.77441406 3.16015625 C-35.51631953 1.6275071 -30.35824309 -0.18529041 -25.22265625 -2.0859375 C-15.69728773 -5.43014972 -9.09933581 -3.38483436 0 0 Z " fill="#E11F23" transform="translate(167.4375,20.8125)"/>
<path d="M0 0 C21.78 0 43.56 0 66 0 C66 10.56 66 21.12 66 32 C48.84 32 31.68 32 14 32 C14 40.58 14 49.16 14 58 C30.17 58 46.34 58 63 58 C63 68.23 63 78.46 63 89 C47.16 89 31.32 89 15 89 C15 97.25 15 105.5 15 114 C31.5 114 48 114 65 114 C65 124.89 65 135.78 65 147 C35.63 147 6.26 147 -24 147 C-24.144375 132.81 -24.28875 118.62 -24.4375 104 C-24.50122803 99.53082031 -24.56495605 95.06164062 -24.63061523 90.45703125 C-24.66223145 84.97070313 -24.66223145 84.97070313 -24.66810608 82.39672852 C-24.67880749 80.61112231 -24.7033292 78.82556458 -24.73902893 77.0402832 C-25.06116603 60.0724824 -25.06116603 60.0724824 -20.58911133 54.94555664 C-19.41306862 53.93944554 -18.21883234 52.95382584 -17 52 C-12.93829816 46.33618244 -9.46497058 40.52492213 -7 34 C-6.34 34 -5.68 34 -5 34 C-4.87625 33.319375 -4.7525 32.63875 -4.625 31.9375 C-4 29 -4 29 -3.0625 25.8125 C-0.57469454 16.88566864 0 9.56429622 0 0 Z " fill="#E12125" transform="translate(205,78)"/>
<path d="M0 0 C34.98 0 69.96 0 106 0 C106 11.55 106 23.1 106 35 C95.11 35 84.22 35 73 35 C73 71.96 73 108.92 73 147 C59.8 147 46.6 147 33 147 C33 110.04 33 73.08 33 35 C22.11 35 11.22 35 0 35 C0 23.45 0 11.9 0 0 Z " fill="#E02327" transform="translate(274,78)"/>
<path d="M0 0 C1.18239258 0.01244751 1.18239258 0.01244751 2.38867188 0.02514648 C14.32202342 0.36900126 24.21153501 5.20745487 32.484375 13.83203125 C40.49915522 23.35323914 42.93522631 33.10960206 42.1875 45.4375 C40.61050338 56.19700857 35.23240635 66.60348183 26.7109375 73.41796875 C16.88490016 80.05833116 6.35242808 84.17176587 -5.49609375 81.9296875 C-17.70560868 78.98314714 -27.63082693 72.57321099 -34.484375 61.8125 C-35.7399652 59.3899495 -36.81978296 56.97781522 -37.8125 54.4375 C-38.245625 53.344375 -38.67875 52.25125 -39.125 51.125 C-41.37856942 39.0376731 -39.55161948 28.10333227 -33.0625 17.625 C-25.13526371 6.5670071 -13.65831189 -0.18675771 0 0 Z " fill="#F6F3F5" transform="translate(150.8125,40.5625)"/>
<path d="M0 0 C0 26.4 0 52.8 0 80 C-13.2 80 -26.4 80 -40 80 C-40 54.26 -40 28.52 -40 2 C-34.44006309 3.11198738 -34.44006309 3.11198738 -31.5625 5.4375 C-25.01548851 10.2845364 -19.81439352 10.14281644 -12 9 C-12 8.34 -12 7.68 -12 7 C-10.02 6.34 -8.04 5.68 -6 5 C-6 4.34 -6 3.68 -6 3 C-1.5 0 -1.5 0 0 0 Z " fill="#E11E22" transform="translate(172,145)"/>
<path d="M0 0 C1.97770502 0.71528507 3.95556757 1.43013478 5.93359375 2.14453125 C6.88403564 2.4914502 7.83447754 2.83836914 8.8137207 3.19580078 C15.30584403 5.53801634 21.82115157 7.58883562 28.49609375 9.34375 C30.5625 10.1875 30.5625 10.1875 32.5625 13.1875 C36.16353926 30.28132217 36.16353926 30.28132217 34.5625 37.1875 C32.7265625 39.01953125 32.7265625 39.01953125 30.5625 40.1875 C26.71400841 38.90466947 26.44823184 37.60501118 24.5 34.125 C18.19085202 23.94852909 9.65321826 19.09652365 -1.4375 15.1875 C-2.84708984 14.63642578 -2.84708984 14.63642578 -4.28515625 14.07421875 C-15.17766866 11.01027784 -28.64009422 12.48456539 -38.4921875 17.8515625 C-50.41380485 25.31372199 -59.10462508 35.30052116 -62.4375 49.1875 C-63.68360728 58.70980706 -63.58799837 68.18364046 -60.07177734 77.18188477 C-59.4375 79.1875 -59.4375 79.1875 -59.4375 83.1875 C-60.0975 83.1875 -60.7575 83.1875 -61.4375 83.1875 C-61.4375 83.8475 -61.4375 84.5075 -61.4375 85.1875 C-80.125 88.0625 -80.125 88.0625 -87.4375 83.1875 C-87.94354984 76.20120081 -87.4708905 71.98549884 -83.4375 66.1875 C-82.1175 66.5175 -80.7975 66.8475 -79.4375 67.1875 C-79.7675 70.1575 -80.0975 73.1275 -80.4375 76.1875 C-72.5175 75.6925 -72.5175 75.6925 -64.4375 75.1875 C-64.7675 69.2475 -65.0975 63.3075 -65.4375 57.1875 C-67.4175 57.6825 -67.4175 57.6825 -69.4375 58.1875 C-69.7675 57.1975 -70.0975 56.2075 -70.4375 55.1875 C-78.0275 55.1875 -85.6175 55.1875 -93.4375 55.1875 C-93.4375 54.8575 -93.4375 54.5275 -93.4375 54.1875 C-85.1875 54.1875 -76.9375 54.1875 -68.4375 54.1875 C-68.31375 51.815625 -68.19 49.44375 -68.0625 47 C-67.66163777 39.98944244 -67.12902024 32.99369569 -66.5 26 C-66.42539551 25.11610596 -66.35079102 24.23221191 -66.27392578 23.3215332 C-66.19513184 22.47937256 -66.11633789 21.63721191 -66.03515625 20.76953125 C-65.96820557 20.02936768 -65.90125488 19.2892041 -65.83227539 18.52661133 C-65.32316972 15.51007364 -64.70608439 12.98500811 -63.4375 10.1875 C-61.109375 8.8671875 -61.109375 8.8671875 -58.1875 8.0625 C-57.11226074 7.75119141 -56.03702148 7.43988281 -54.92919922 7.11914062 C-53.20080811 6.65797852 -53.20080811 6.65797852 -51.4375 6.1875 C-49.06448948 5.51257416 -46.69209487 4.83547912 -44.3203125 4.15625 C-43.15016602 3.82753906 -41.98001953 3.49882812 -40.77441406 3.16015625 C-35.51631953 1.6275071 -30.35824309 -0.18529041 -25.22265625 -2.0859375 C-15.69728773 -5.43014972 -9.09933581 -3.38483436 0 0 Z " fill="#E02125" transform="translate(167.4375,20.8125)"/>
<path d="M0 0 C10.71978116 -0.61548983 10.71978116 -0.61548983 15.25 1.5625 C17.6562212 4.91402238 17.49715177 6.95176413 17 11 C15.56321639 16.74713445 11.37678538 21.55264412 6.3828125 24.59375 C3.27676309 26.5295315 1.19873365 28.05267026 -1 31 C-2.10826741 36.21667987 -1.42832914 41.64646577 -1.07958984 46.92382812 C-0.80829954 54.00067711 -3.43637334 60.53520232 -6 67 C-6.35194693 68.3285414 -6.69031399 69.66097668 -7 71 C-7.66 71 -8.32 71 -9 71 C-9.226875 72.010625 -9.45375 73.02125 -9.6875 74.0625 C-10.73075355 77.7511465 -12.47039149 80.35988712 -14.78125 83.3828125 C-16.12103664 85.09125883 -16.12103664 85.09125883 -17.4375 87.5 C-20.81068648 92.89709837 -24.42600035 96.88893043 -30 100 C-32.36507026 101.82530684 -34.69225775 103.69136217 -37.01171875 105.57421875 C-39 107 -39 107 -41 107 C-41 107.66 -41 108.32 -41 109 C-44 111 -44 111 -47 111 C-47 111.66 -47 112.32 -47 113 C-52.99426348 115.4262495 -56.52616118 114.92768956 -62.5 112.6875 C-65.90805552 111.04433037 -68.87949315 109.12761831 -72 107 C-73.485 106.505 -73.485 106.505 -75 106 C-75 105.01 -75 104.02 -75 103 C-75.721875 102.773125 -76.44375 102.54625 -77.1875 102.3125 C-86.28144716 98.06865799 -94.66102744 85.43902114 -100 77 C-100.8125 74.0625 -100.8125 74.0625 -101 72 C-98.1875 70.4375 -98.1875 70.4375 -95 69 C-91.60734731 70.13088423 -91.0651587 70.94297711 -88.9375 73.6875 C-82.64809435 81.1252897 -73.6545179 85.84466077 -64 87 C-48.43283279 88.0199025 -48.43283279 88.0199025 -34 83 C-33.17628906 82.5875 -32.35257812 82.175 -31.50390625 81.75 C-20.74592459 75.98621074 -14.17211151 67.32669631 -10 56 C-9.61328125 55.14277344 -9.2265625 54.28554687 -8.828125 53.40234375 C-7.8168255 49.24742931 -8.17517506 45.73310413 -8.48535156 41.49560547 C-9.32316677 28.30305154 -9.32316677 28.30305154 -6.79736328 23.90673828 C-4.26930007 21.09715712 -1.43705763 19.11963005 1.765625 17.1484375 C5.30961784 14.79433598 6.9617674 12.70270617 9 9 C9.41986946 6.28836222 9.41986946 6.28836222 9 4 C7.50256881 2.50256881 6.01175761 2.66797307 3.9375 2.4375 C2.638125 2.293125 1.33875 2.14875 0 2 C0 1.34 0 0.68 0 0 Z " fill="#1C3F72" transform="translate(207,41)"/>
<path d="M0 0 C5.34353912 4.43068452 8.63118033 9.32295122 11.875 15.4296875 C13.855 14.7696875 15.835 14.1096875 17.875 13.4296875 C16.885 2.0446875 16.885 2.0446875 15.875 -9.5703125 C16.535 -9.5703125 17.195 -9.5703125 17.875 -9.5703125 C18.865 2.3096875 18.865 2.3096875 19.875 14.4296875 C19.215 14.4296875 18.555 14.4296875 17.875 14.4296875 C17.875 15.4196875 17.875 16.4096875 17.875 17.4296875 C19.36 17.9246875 19.36 17.9246875 20.875 18.4296875 C20.05 18.85378906 19.225 19.27789062 18.375 19.71484375 C15.47865254 22.86009607 15.53402387 23.51200672 15.5625 27.61328125 C15.65015818 29.69867607 15.75520156 31.78339196 15.875 33.8671875 C16.16849693 43.60634551 15.70266012 50.77077385 10.875 59.4296875 C10.2975 60.4815625 9.72 61.5334375 9.125 62.6171875 C8.3825 63.5453125 7.64 64.4734375 6.875 65.4296875 C6.30652344 66.18636719 5.73804688 66.94304687 5.15234375 67.72265625 C-1.32944592 75.73099826 -10.8332928 82.35482491 -21.125 84.4296875 C-24.35141762 84.64796135 -27.57939183 84.61481892 -30.8125 84.6171875 C-31.67294922 84.62943359 -32.53339844 84.64167969 -33.41992188 84.65429688 C-45.74259233 84.68215521 -56.24223199 81.34500766 -65.375 72.7421875 C-69.69484831 68.08595756 -73.07844462 62.99061517 -76.125 57.4296875 C-76.78048828 56.23666016 -76.78048828 56.23666016 -77.44921875 55.01953125 C-82.28403651 44.31507508 -82.20619107 29.74909465 -78.12133789 18.81103516 C-72.47155051 5.80180212 -62.64652972 -4.06108548 -49.58203125 -9.66015625 C-31.82971198 -15.48807347 -14.62375629 -10.80652579 0 0 Z M-65.5 12.2421875 C-68.74844816 16.88019847 -70.43584077 22.06768974 -72.125 27.4296875 C-72.455 28.4196875 -72.785 29.4096875 -73.125 30.4296875 C-74.1426101 44.38268758 -71.13282886 54.22703725 -62.0859375 64.81640625 C-53.73180902 73.74617256 -43.97736561 78.1264306 -31.8125 78.8046875 C-20.68676498 78.47575273 -9.57955711 72.88424461 -1.80078125 65.10546875 C6.66215103 55.14079618 9.6765761 44.35510215 8.875 31.4296875 C7.06397581 19.96672758 1.40884171 10.50996028 -7.875 3.6171875 C-27.52458077 -9.03149473 -50.5398918 -6.06327152 -65.5 12.2421875 Z " fill="#F2F3F5" transform="translate(184.125,44.5703125)"/>
<path d="M0 0 C1.18239258 0.01244751 1.18239258 0.01244751 2.38867188 0.02514648 C14.32202342 0.36900126 24.21153501 5.20745487 32.484375 13.83203125 C40.49915522 23.35323914 42.93522631 33.10960206 42.1875 45.4375 C40.61050338 56.19700857 35.23240635 66.60348183 26.7109375 73.41796875 C16.88490016 80.05833116 6.35242808 84.17176587 -5.49609375 81.9296875 C-17.70560868 78.98314714 -27.63082693 72.57321099 -34.484375 61.8125 C-35.7399652 59.3899495 -36.81978296 56.97781522 -37.8125 54.4375 C-38.245625 53.344375 -38.67875 52.25125 -39.125 51.125 C-41.37856942 39.0376731 -39.55161948 28.10333227 -33.0625 17.625 C-25.13526371 6.5670071 -13.65831189 -0.18675771 0 0 Z M-18.8125 16.4375 C-19.53824219 17.1490625 -20.26398438 17.860625 -21.01171875 18.59375 C-27.47342661 25.36868248 -29.93320957 30.30393769 -30.3125 39.625 C-30.05524688 50.47250655 -26.71437606 58.4224007 -18.875 65.9140625 C-16.60021336 67.59430264 -14.4672206 68.48430898 -11.8125 69.4375 C-11.18988281 69.71851563 -10.56726563 69.99953125 -9.92578125 70.2890625 C-1.96811769 73.70688763 4.76051442 73.19459763 12.875 70.375 C22.12319166 66.49532383 27.12856905 60.51139109 31.1875 51.4375 C33.71058907 43.88440644 33.4311076 33.92831426 29.9375 26.8125 C29.0584919 25.33116322 28.1461762 23.86856737 27.1875 22.4375 C26.589375 21.509375 25.99125 20.58125 25.375 19.625 C18.16091313 12.41091313 9.86099488 10.00714008 -0.125 9.9375 C-7.91786559 9.93824041 -13.17312548 10.64378471 -18.8125 16.4375 Z " fill="#264572" transform="translate(150.8125,40.5625)"/>
<path d="M0 0 C0.66 0.99 1.32 1.98 2 3 C5.56769552 3.73606499 5.56769552 3.73606499 9 4 C9.66 2.68 10.32 1.36 11 0 C15.75 0.875 15.75 0.875 18 2 C18.1546875 3.670625 18.1546875 3.670625 18.3125 5.375 C18.60925719 9.15517045 18.60925719 9.15517045 21.5625 10.9375 C22.366875 11.288125 23.17125 11.63875 24 12 C22.125 15.875 22.125 15.875 21 17 C17.37940768 17.29356154 15.12296038 16.85064319 12 15 C12 14.34 12 13.68 12 13 C11.01 13 10.02 13 9 13 C9 13.66 9 14.32 9 15 C8.34 15 7.68 15 7 15 C7 14.01 7 13.02 7 12 C3.59351669 12.06812967 0.96494102 12.26111892 -1.80078125 14.37890625 C-4.67533826 17.44555776 -5.90623964 19.33195742 -6.5 23.5625 C-6.01170851 26.91950403 -5.23174187 29.84366146 -4 33 C-3.34 33 -2.68 33 -2 33 C-1.67 33.66 -1.34 34.32 -1 35 C1.25190053 35.50758392 1.25190053 35.50758392 3.875 35.6875 C4.75929687 35.77386719 5.64359375 35.86023438 6.5546875 35.94921875 C9.14021145 36.13984976 9.14021145 36.13984976 12 35 C12 34.34 12 33.68 12 33 C13.485 32.505 13.485 32.505 15 32 C16.13813157 29.77449605 16.13813157 29.77449605 17 27.125 C18.18979242 23.72417666 19.09902845 21.23999069 22 19 C24.6875 18.8125 24.6875 18.8125 27 19 C26.7525 19.9075 26.505 20.815 26.25 21.75 C26.1675 22.8225 26.085 23.895 26 25 C26.66 25.66 27.32 26.32 28 27 C30 29 30 29 30.25 32.0625 C29 35 29 35 27.20703125 35.98046875 C25.79118984 36.48852113 24.35750168 36.94960025 22.91015625 37.359375 C20.7904984 37.91245649 20.7904984 37.91245649 19 40 C18.83318891 43.08347826 18.83318891 43.08347826 19 46 C16.35261084 47.4606285 15.10551666 48 12 48 C12 47.34 12 46.68 12 46 C8.01362858 45.26979217 8.01362858 45.26979217 4 45 C2.35405861 46.39588754 2.35405861 46.39588754 1 48 C-2.125 48.25 -2.125 48.25 -5 48 C-6 47 -6 47 -6.4375 43.5625 C-6.64847551 39.95941003 -6.64847551 39.95941003 -9 38 C-10.155 37.855625 -11.31 37.71125 -12.5 37.5625 C-13.655 37.376875 -14.81 37.19125 -16 37 C-18 34 -18 34 -17.75 31.9375 C-17 30 -17 30 -15 28 C-14.58333333 25 -14.58333333 25 -15 22 C-15.99 21.34 -16.98 20.68 -18 20 C-17.67 17.69 -17.34 15.38 -17 13 C-15.329375 12.814375 -15.329375 12.814375 -13.625 12.625 C-9.96896323 12.3534187 -9.96896323 12.3534187 -8 10 C-7.66330615 7.95426522 -7.55930828 5.94399048 -7.44140625 3.875 C-6.48186604 -0.200923 -3.64603346 0 0 0 Z " fill="#DB2024" transform="translate(146,57)"/>
<path d="M0 0 C0.515625 0.2475 1.03125 0.495 1.5625 0.75 C0.2425 1.74 -1.0775 2.73 -2.4375 3.75 C-2.1075 4.74 -1.7775 5.73 -1.4375 6.75 C-2.4275 7.08 -3.4175 7.41 -4.4375 7.75 C-4.375625 9.008125 -4.31375 10.26625 -4.25 11.5625 C-4.26815617 14.12705844 -4.2859013 15.46463773 -5.5 17.75 C-8.45837678 19.27690415 -11.17466599 18.93468872 -14.4375 18.75 C-14.7675 21.06 -15.0975 23.37 -15.4375 25.75 C-14.1175 26.41 -12.7975 27.07 -11.4375 27.75 C-11.25 30.5625 -11.25 30.5625 -11.4375 33.75 C-11.953125 34.245 -12.46875 34.74 -13 35.25 C-13.474375 35.745 -13.94875 36.24 -14.4375 36.75 C-14.20466851 39.89921909 -14.20466851 39.89921909 -13.4375 42.75 C-12.344375 42.688125 -11.25125 42.62625 -10.125 42.5625 C-6.4375 42.75 -6.4375 42.75 -4.5625 43.8125 C-2.90264955 46.67113133 -2.74434971 49.49739303 -2.4375 52.75 C0.43700983 53.00048636 0.43700983 53.00048636 3.5625 52.75 C4.58269573 51.7706121 5.58399805 50.77104551 6.5625 49.75 C10.31099077 49.28143865 11.32996204 49.59497469 14.5625 51.75 C14.5625 52.74 14.5625 53.73 14.5625 54.75 C17.0375 54.255 17.0375 54.255 19.5625 53.75 C18.56352287 56.74693138 17.91119747 57.77709413 15.5625 59.75 C14.9025 59.75 14.2425 59.75 13.5625 59.75 C13.5625 60.41 13.5625 61.07 13.5625 61.75 C6.82445061 62.12280191 1.68592683 61.60582813 -4.4375 58.75 C-5.9534375 58.13125 -5.9534375 58.13125 -7.5 57.5 C-15.67945623 52.62713246 -20.02912181 45.93790976 -22.4375 36.75 C-23.63017026 27.42196109 -23.07447006 19.47019813 -17.4375 11.75 C-13.37072086 6.85795396 -6.97531457 -0.71541688 0 0 Z " fill="#F2F1F4" transform="translate(143.4375,51.25)"/>
<path d="M0 0 C0.33 0 0.66 0 1 0 C1 3.3 1 6.6 1 10 C2.98 9.34 4.96 8.68 7 8 C7 7.01 7 6.02 7 5 C7.66 5 8.32 5 9 5 C8.505 3.515 8.505 3.515 8 2 C9.65 1.67 11.3 1.34 13 1 C12.44570312 2.09699219 11.89140625 3.19398437 11.3203125 4.32421875 C10.58843442 5.77859187 9.85666955 7.23302196 9.125 8.6875 C8.76019531 9.40873047 8.39539063 10.12996094 8.01953125 10.87304688 C7.30931055 12.28703173 6.6072418 13.70514377 5.91381836 15.12744141 C5.21720516 16.55491222 4.49510372 17.96997425 3.76171875 19.37890625 C2.52770698 23.62517239 2.67208121 27.85256107 2.6875 32.25 C2.67138672 33.15363281 2.65527344 34.05726562 2.63867188 34.98828125 C2.63472774 40.47062196 3.32184075 44.91522021 5.35473633 50.01855469 C6 52 6 52 6 56 C5.34 56 4.68 56 4 56 C4 56.66 4 57.32 4 58 C-14.6875 60.875 -14.6875 60.875 -22 56 C-22.50604984 49.01370081 -22.0333905 44.79799884 -18 39 C-16.68 39.33 -15.36 39.66 -14 40 C-14.33 42.97 -14.66 45.94 -15 49 C-7.08 48.505 -7.08 48.505 1 48 C0.67 42.06 0.34 36.12 0 30 C-1.32 30.33 -2.64 30.66 -4 31 C-4.33 30.01 -4.66 29.02 -5 28 C-12.59 28 -20.18 28 -28 28 C-28 27.67 -28 27.34 -28 27 C-19.75 27 -11.5 27 -3 27 C-2.814375 23.101875 -2.814375 23.101875 -2.625 19.125 C-2.27776053 12.60849335 -1.60589834 6.34563714 0 0 Z " fill="#D43336" transform="translate(102,48)"/>
<path d="M0 0 C1.5159375 0.2475 1.5159375 0.2475 3.0625 0.5 C3.0625 1.49 3.0625 2.48 3.0625 3.5 C3.7225 3.5 4.3825 3.5 5.0625 3.5 C5.0625 2.84 5.0625 2.18 5.0625 1.5 C6.0525 1.5 7.0425 1.5 8.0625 1.5 C8.7225 2.16 9.3825 2.82 10.0625 3.5 C10.7225 3.83 11.3825 4.16 12.0625 4.5 C12.0625 5.49 12.0625 6.48 12.0625 7.5 C12.7225 7.83 13.3825 8.16 14.0625 8.5 C14.0625 9.16 14.0625 9.82 14.0625 10.5 C13.4025 10.5 12.7425 10.5 12.0625 10.5 C12.7225 11.16 13.3825 11.82 14.0625 12.5 C13.73832137 16.30909895 13.20668558 18.28372163 11.0625 21.5 C10.0725 21.5 9.0825 21.5 8.0625 21.5 C8.0625 22.16 8.0625 22.82 8.0625 23.5 C4.61035147 25.80143236 3.82770676 25.63833854 -0.125 25.125 C-1.02605469 25.01414062 -1.92710937 24.90328125 -2.85546875 24.7890625 C-3.54253906 24.69367188 -4.22960937 24.59828125 -4.9375 24.5 C-5.2675 23.51 -5.5975 22.52 -5.9375 21.5 C-6.5975 21.5 -7.2575 21.5 -7.9375 21.5 C-10.59440829 16.96111501 -11.84281829 13.75084605 -10.9375 8.5 C-8.06949963 3.68615867 -5.68324036 0.72168132 0 0 Z " fill="#FCCECC" transform="translate(149.9375,68.5)"/>
<path d="M0 0 C10.71978116 -0.61548983 10.71978116 -0.61548983 15.25 1.5625 C17.6562212 4.91402238 17.49715177 6.95176413 17 11 C15.3924572 17.4301712 9.53546229 23.59356167 4 27 C1.1875 26.75 1.1875 26.75 -1 26 C-1 26.66 -1 27.32 -1 28 C-2.32 28 -3.64 28 -5 28 C-4.34 28.33 -3.68 28.66 -3 29 C-2.69215292 45.07645875 -2.69215292 45.07645875 -5 52 C-5.35543427 54.33006911 -5.6913753 56.66327016 -6 59 C-7.485 59.495 -7.485 59.495 -9 60 C-10.21869929 62.50447516 -10.21869929 62.50447516 -11 65 C-11.66 65 -12.32 65 -13 65 C-10 56 -10 56 -8.85546875 53.42578125 C-7.81354721 49.25333744 -8.17352829 45.75560156 -8.48535156 41.49560547 C-9.32316677 28.30305154 -9.32316677 28.30305154 -6.79736328 23.90673828 C-4.26930007 21.09715712 -1.43705763 19.11963005 1.765625 17.1484375 C5.30961784 14.79433598 6.9617674 12.70270617 9 9 C9.41986946 6.28836222 9.41986946 6.28836222 9 4 C7.50256881 2.50256881 6.01175761 2.66797307 3.9375 2.4375 C2.638125 2.293125 1.33875 2.14875 0 2 C0 1.34 0 0.68 0 0 Z " fill="#234273" transform="translate(207,41)"/>
<path d="M0 0 C2.97 0.33 5.94 0.66 9 1 C9 7.29133536 6.46965582 10.83467821 2.4453125 15.55859375 C-3.7168404 21.71090296 -10.19166928 25.83380508 -19 26 C-19 24.35 -19 22.7 -19 21 C-20.32 21 -21.64 21 -23 21 C-23 21.99 -23 22.98 -23 24 C-22.01 24.33 -21.02 24.66 -20 25 C-20.33 25.66 -20.66 26.32 -21 27 C-23.31 27 -25.62 27 -28 27 C-28.33 26.34 -28.66 25.68 -29 25 C-28.34 25 -27.68 25 -27 25 C-27.33 23.68 -27.66 22.36 -28 21 C-29.98 20.67 -31.96 20.34 -34 20 C-34 19.67 -34 19.34 -34 19 C-33.35675781 18.98582031 -32.71351563 18.97164062 -32.05078125 18.95703125 C-21.92745572 18.42270451 -12.33001078 16.15421929 -5.3125 8.4375 C-3.05804628 5.65201864 -1.6250659 3.25013181 0 0 Z " fill="#314C78" transform="translate(180,94)"/>
<path d="M0 0 C15.84 0 31.68 0 48 0 C48 0.33 48 0.66 48 1 C32.49 1 16.98 1 1 1 C1 8.59 1 16.18 1 24 C17.83 24 34.66 24 52 24 C52 35.55 52 47.1 52 59 C51.01 59 50.02 59 49 59 C49 59.66 49 60.32 49 61 C48.17485901 60.83668686 47.34971802 60.67337372 46.49957275 60.50511169 C42.64255721 59.94840841 38.89175132 59.88202811 35.00683594 59.91821289 C34.22888672 59.92127945 33.4509375 59.92434601 32.64941406 59.92750549 C30.96995753 59.93462868 29.29050932 59.94400174 27.61107635 59.95540047 C24.95525051 59.97284758 22.29948524 59.98310667 19.64361572 59.99131775 C12.09601117 60.01573152 4.54848908 60.0515105 -2.99902344 60.09594727 C-7.62244889 60.12266856 -12.24582797 60.13974855 -16.8693161 60.15081596 C-18.63164749 60.1570362 -20.39396961 60.16705446 -22.15625763 60.18089485 C-24.61237057 60.20002641 -27.06823688 60.20699454 -29.52441406 60.21118164 C-30.25585632 60.21994324 -30.98729858 60.22870483 -31.74090576 60.23773193 C-36.77210233 60.22789767 -36.77210233 60.22789767 -39 58 C-9.63 58 19.74 58 50 58 C50 47.11 50 36.22 50 25 C33.5 25 17 25 0 25 C0 16.75 0 8.5 0 0 Z " fill="#FDDADC" transform="translate(220,167)"/>
<path d="M0 0 C0.72329973 1.9802227 1.39397146 3.98079871 2 6 C1.29875 6.40089844 0.5975 6.80179688 -0.125 7.21484375 C-6.29326284 10.91077298 -10.88629931 14.62053663 -15.34375 20.27734375 C-15.8903125 20.84582031 -16.436875 21.41429688 -17 22 C-17.99 22 -18.98 22 -20 22 C-20.33 22.66 -20.66 23.32 -21 24 C-23.475 23.01 -23.475 23.01 -26 22 C-26 15.70676559 -23.60101512 12.64810044 -19.328125 8.15234375 C-6.82096584 -3.41048292 -6.82096584 -3.41048292 0 0 Z " fill="#1E406E" transform="translate(142,44)"/>
<path d="M0 0 C2.31 0.33 4.62 0.66 7 1 C7 1.66 7 2.32 7 3 C40.99 3 74.98 3 110 3 C110 3.33 110 3.66 110 4 C75.02 4 40.04 4 4 4 C4 15.55 4 27.1 4 39 C3.01 38.01 2.02 37.02 1 36 C1 25.44 1 14.88 1 4 C-20.78 4 -42.56 4 -65 4 C-65 3.67 -65 3.34 -65 3 C-42.56 3 -20.12 3 3 3 C3 2.34 3 1.68 3 1 C2.01 0.67 1.02 0.34 0 0 Z " fill="#FEE0DF" transform="translate(270,74)"/>
<path d="M0 0 C-0.2475 0.9075 -0.495 1.815 -0.75 2.75 C-0.8325 3.8225 -0.915 4.895 -1 6 C-0.34 6.66 0.32 7.32 1 8 C1.66 8.66 2.32 9.32 3 10 C2.75 13.25 2.75 13.25 2 16 C1.07767578 15.98259766 1.07767578 15.98259766 0.13671875 15.96484375 C-1.07564453 15.95130859 -1.07564453 15.95130859 -2.3125 15.9375 C-3.11300781 15.92589844 -3.91351563 15.91429688 -4.73828125 15.90234375 C-7.16861334 15.90342145 -7.16861334 15.90342145 -10 17 C-10 18.65 -10 20.3 -10 22 C-12.31 22 -14.62 22 -17 22 C-17 22.66 -17 23.32 -17 24 C-18.98567708 23.96744792 -20.97135417 23.93489583 -22.95703125 23.90234375 C-25.20305461 23.91736783 -25.20305461 23.91736783 -28 25 C-28 25.66 -28 26.32 -28 27 C-29.32 27 -30.64 27 -32 27 C-31.51421457 23.87709365 -31.0013988 21.00419641 -30 18 C-26.04 18.33 -22.08 18.66 -18 19 C-17.67 18.01 -17.34 17.02 -17 16 C-16.34 16 -15.68 16 -15 16 C-15 15.34 -15 14.68 -15 14 C-14.01 13.67 -13.02 13.34 -12 13 C-10.86186843 10.77449605 -10.86186843 10.77449605 -10 8.125 C-7.97073552 2.3246857 -6.51471644 -0.52822025 0 0 Z " fill="#DD2227" transform="translate(173,76)"/>
<path d="M0 0 C3.00262939 1.5013147 3.262139 3.83040926 4.3359375 6.89453125 C7.05513741 15.5159945 6.69941366 24.45185674 4 33 C3.34 33.99 2.68 34.98 2 36 C-0.64 35.01 -3.28 34.02 -6 33 C-5.83628906 32.19304687 -5.67257813 31.38609375 -5.50390625 30.5546875 C-4.91102007 26.37231212 -4.89105748 22.34055182 -4.9375 18.125 C-4.94426758 16.949375 -4.94426758 16.949375 -4.95117188 15.75 C-4.96285907 13.83329986 -4.98079092 11.91663952 -5 10 C-3.35 10.33 -1.7 10.66 0 11 C0 10.01 0 9.02 0 8 C-1.32 7.34 -2.64 6.68 -4 6 C-4 4.68 -4 3.36 -4 2 C-2.125 0.9375 -2.125 0.9375 0 0 Z " fill="#5C7597" transform="translate(187,61)"/>
<path d="M0 0 C0 2.64 0 5.28 0 8 C2.20857055 7.85780436 4.41684987 7.71108153 6.625 7.5625 C8.46964844 7.44068359 8.46964844 7.44068359 10.3515625 7.31640625 C13.61532388 7.03336056 16.77943859 6.58961047 20 6 C21.76462683 9.08809695 22 10.23312136 22 14 C21.34 14 20.68 14 20 14 C20 14.66 20 15.32 20 16 C1.3125 18.875 1.3125 18.875 -6 14 C-6.62674095 4.87743733 -6.62674095 4.87743733 -4.125 1.375 C-2 0 -2 0 0 0 Z " fill="#223F6D" transform="translate(86,90)"/>
<path d="M0 0 C0.66 0.99 1.32 1.98 2 3 C5.56769552 3.73606499 5.56769552 3.73606499 9 4 C9.66 2.68 10.32 1.36 11 0 C15.75 0.875 15.75 0.875 18 2 C18.103125 3.11375 18.20625 4.2275 18.3125 5.375 C18.60925719 9.15517045 18.60925719 9.15517045 21.5625 10.9375 C22.366875 11.288125 23.17125 11.63875 24 12 C22.125 15.875 22.125 15.875 21 17 C17.37940768 17.29356154 15.12296038 16.85064319 12 15 C12 14.34 12 13.68 12 13 C11.01 13 10.02 13 9 13 C9 13.66 9 14.32 9 15 C8.34 15 7.68 15 7 15 C7 14.01 7 13.02 7 12 C3.46400002 12.07072 0.8958137 12.19163015 -1.80078125 14.625 C-3.27675028 16.37220916 -4.67266996 18.13784833 -6 20 C-7.0625 18.1875 -7.0625 18.1875 -8 16 C-7.67 15.01 -7.34 14.02 -7 13 C-5.515 13.99 -5.515 13.99 -4 15 C-3.67 13.68 -3.34 12.36 -3 11 C0.3 10.34 3.6 9.68 7 9 C6.34 8.67 5.68 8.34 5 8 C5 7.34 5 6.68 5 6 C3.576875 5.814375 3.576875 5.814375 2.125 5.625 C-1 5 -1 5 -3 3 C-3.66 4.98 -4.32 6.96 -5 9 C-5.66 9 -6.32 9 -7 9 C-7.1875 5.625 -7.1875 5.625 -7 2 C-4 0 -4 0 0 0 Z " fill="#DA2529" transform="translate(146,57)"/>
<path d="M0 0 C0.66 0.66 1.32 1.32 2 2 C4.31765729 2.71927295 6.65095874 3.3909893 9 4 C9 4.33 9 4.66 9 5 C10.98 5.66 12.96 6.32 15 7 C14.67 8.65 14.34 10.3 14 12 C16.31 12 18.62 12 21 12 C20.34 11.34 19.68 10.68 19 10 C19 9.01 19 8.02 19 7 C20.32 7 21.64 7 23 7 C23 8.65 23 10.3 23 12 C23.99 12.33 24.98 12.66 26 13 C15.7223091 16.49878839 6.17708541 15.34650024 -3.6640625 10.7578125 C-9.75501627 7.48996746 -9.75501627 7.48996746 -11 5 C-10.34 5 -9.68 5 -9 5 C-8.71125 4.360625 -8.4225 3.72125 -8.125 3.0625 C-6.17936385 -0.50449961 -3.78909959 -0.28418247 0 0 Z " fill="#284879" transform="translate(138,108)"/>
<path d="M0 0 C0.33 0 0.66 0 1 0 C1 26.4 1 52.8 1 80 C-12.2 80 -25.4 80 -39 80 C-39 54.26 -39 28.52 -39 2 C-33.375 3.125 -33.375 3.125 -31 6 C-33.31 5.67 -35.62 5.34 -38 5 C-38 29.09 -38 53.18 -38 78 C-25.46 78 -12.92 78 0 78 C0 52.26 0 26.52 0 0 Z " fill="#CC3D41" transform="translate(171,145)"/>
<path d="M0 0 C15.84 0 31.68 0 48 0 C48 10.23 48 20.46 48 31 C32.16 31 16.32 31 0 31 C0 30.34 0 29.68 0 29 C15.18 29 30.36 29 46 29 C45.67 20.09 45.34 11.18 45 2 C30.15 1.67 15.3 1.34 0 1 C0 0.67 0 0.34 0 0 Z " fill="#D24245" transform="translate(220,136)"/>
<path d="M0 0 C0.99 1.485 0.99 1.485 2 3 C5.0745356 2.2236068 5.0745356 2.2236068 7 0 C8.4606285 2.64738916 9 3.89448334 9 7 C7.68 7 6.36 7 5 7 C5 8.32 5 9.64 5 11 C6.32 11.33 7.64 11.66 9 12 C9.33 11.01 9.66 10.02 10 9 C10 9.66 10 10.32 10 11 C10.58265625 11.09152344 11.1653125 11.18304688 11.765625 11.27734375 C14.53183847 12.17201069 15.76373964 13.46164769 17.75 15.5625 C18.67039063 16.52349609 18.67039063 16.52349609 19.609375 17.50390625 C20.06828125 17.99761719 20.5271875 18.49132812 21 19 C20.52949219 19.44988281 20.05898437 19.89976563 19.57421875 20.36328125 C17.88442061 22.12016815 16.99174341 23.78764932 16 26 C8.94622971 22.57999016 3.90261044 15.96624797 0.64453125 8.96484375 C-0.37398731 5.85990534 -0.27009176 3.2411011 0 0 Z " fill="#284672" transform="translate(113,88)"/>
<path d="M0 0 C16.83 0 33.66 0 51 0 C51 0.33 51 0.66 51 1 C34.83 1 18.66 1 2 1 C2.33 7.93 2.66 14.86 3 22 C6.41946839 23.7097342 10.33386581 23.09794626 14.09375 23.0625 C14.9962146 23.05871338 15.8986792 23.05492676 16.82849121 23.05102539 C19.71904187 23.03877994 22.60949426 23.02014958 25.5 23 C29.30208062 22.97349587 33.10411212 22.95345326 36.90625 22.9375 C38.22659241 22.92505249 38.22659241 22.92505249 39.5736084 22.91235352 C45.77439638 22.88719819 45.77439638 22.88719819 48 24 C48 24.66 48 25.32 48 26 C32.16 26 16.32 26 0 26 C0 17.42 0 8.84 0 0 Z " fill="#F8C2C2" transform="translate(219,110)"/>
<path d="M0 0 C0.99 0 1.98 0 3 0 C3 2.64 3 5.28 3 8 C3.66 8 4.32 8 5 8 C4.67 10.97 4.34 13.94 4 17 C4.66 17 5.32 17 6 17 C6.33 16.01 6.66 15.02 7 14 C7.66 14 8.32 14 9 14 C9 14.66 9 15.32 9 16 C9.66 16.33 10.32 16.66 11 17 C10.01 17 9.02 17 8 17 C8 17.66 8 18.32 8 19 C4.54785147 21.30143236 3.76520676 21.13833854 -0.1875 20.625 C-1.08855469 20.51414062 -1.98960937 20.40328125 -2.91796875 20.2890625 C-3.60503906 20.19367188 -4.29210937 20.09828125 -5 20 C-5.33 19.01 -5.66 18.02 -6 17 C-6.66 17 -7.32 17 -8 17 C-8.66 15.68 -9.32 14.36 -10 13 C-9.34 13 -8.68 13 -8 13 C-7.67 11.35 -7.34 9.7 -7 8 C-6.34 8 -5.68 8 -5 8 C-5 8.66 -5 9.32 -5 10 C-4.01 10 -3.02 10 -2 10 C-2.04125 8.72125 -2.0825 7.4425 -2.125 6.125 C-2.1953125 3.9453125 -2.1953125 3.9453125 -2 2 C-1.34 1.34 -0.68 0.68 0 0 Z " fill="#DD8688" transform="translate(150,73)"/>
<path d="M0 0 C1.32 0.66 2.64 1.32 4 2 C3.01386719 2.47759766 3.01386719 2.47759766 2.0078125 2.96484375 C-0.41636354 4.98691814 -0.41636354 4.98691814 -0.3203125 8.87890625 C-0.27160056 10.44070157 -0.20560498 12.00202561 -0.125 13.5625 C0.13537874 23.61651128 -1.29168678 31.64860144 -5 41 C-5.35194693 42.3285414 -5.69031399 43.66097668 -6 45 C-6.66 45 -7.32 45 -8 45 C-8.226875 46.010625 -8.45375 47.02125 -8.6875 48.0625 C-9.73075355 51.7511465 -11.47039149 54.35988712 -13.78125 57.3828125 C-15.12103664 59.09125883 -15.12103664 59.09125883 -16.4375 61.5 C-18.5902007 64.94432112 -21.07417861 68.17197766 -24 71 C-24.66 71 -25.32 71 -26 71 C-25.69201674 69.51988629 -25.378482 68.04092675 -25.0625 66.5625 C-24.88847656 65.73878906 -24.71445313 64.91507812 -24.53515625 64.06640625 C-24 62 -24 62 -23 61 C-21.00041636 60.95919217 -18.99954746 60.95745644 -17 61 C-16.9175 60.46375 -16.835 59.9275 -16.75 59.375 C-16 57 -16 57 -14 54.1875 C-11.77594544 50.64291304 -11.46498248 48.10734526 -11 44 C-10.34 43.01 -9.68 42.02 -9 41 C-8.34 41 -7.68 41 -7 41 C-7 39.68 -7 38.36 -7 37 C-6.34 37 -5.68 37 -5 37 C-5.01160156 36.07316406 -5.02320313 35.14632812 -5.03515625 34.19140625 C-5.04417969 32.99386719 -5.05320313 31.79632813 -5.0625 30.5625 C-5.07410156 29.36753906 -5.08570313 28.17257813 -5.09765625 26.94140625 C-5 24 -5 24 -4 23 C-3.73483268 20.03601861 -3.5305913 17.09496329 -3.375 14.125 C-3.3234375 13.29613281 -3.271875 12.46726562 -3.21875 11.61328125 C-3.17492187 10.81535156 -3.13109375 10.01742187 -3.0859375 9.1953125 C-3.0451709 8.46328613 -3.0044043 7.73125977 -2.96240234 6.97705078 C-2.90580248 4.7857047 -2.90580248 4.7857047 -4 2 C-2.68 2 -1.36 2 0 2 C0 1.34 0 0.68 0 0 Z " fill="#3C335D" transform="translate(206,67)"/>
<path d="M0 0 C0.763125 0.474375 1.52625 0.94875 2.3125 1.4375 C4.96410548 3.10106097 4.96410548 3.10106097 8 4 C8 4.66 8 5.32 8 6 C8.99 6.33 9.98 6.66 11 7 C9.34623289 8.65376711 7.19051636 8.63471208 4.9375 9.0625 C4.01839844 9.23910156 3.09929687 9.41570312 2.15234375 9.59765625 C1.44207031 9.73042969 0.73179687 9.86320312 0 10 C-0.33 10.99 -0.66 11.98 -1 13 C-1.99 12.67 -2.98 12.34 -4 12 C-4 13.98 -4 15.96 -4 18 C-4.66 18 -5.32 18 -6 18 C-5.67 21.3 -5.34 24.6 -5 28 C-5.66 28 -6.32 28 -7 28 C-7 28.99 -7 29.98 -7 31 C-8.32 31 -9.64 31 -11 31 C-11.33 31.66 -11.66 32.32 -12 33 C-11.125 29.125 -11.125 29.125 -10 28 C-9.92733028 24.95695568 -10.00383691 21.92596034 -10.0625 18.8828125 C-10 16 -10 16 -9 13 C-9.99 12.67 -10.98 12.34 -12 12 C-10.02 12 -8.04 12 -6 12 C-5.896875 11.360625 -5.79375 10.72125 -5.6875 10.0625 C-5.460625 9.381875 -5.23375 8.70125 -5 8 C-4.01 7.67 -3.02 7.34 -2 7 C-2.04125 6.21625 -2.0825 5.4325 -2.125 4.625 C-2 2 -2 2 0 0 Z " fill="#E11E22" transform="translate(143,59)"/>
<path d="M0 0 C2.25245881 2.68841859 3.88213958 4.64641875 5 8 C2.53638041 10.46361959 0.53206072 10.55234697 -2.83203125 11.046875 C-5 11 -5 11 -7.1171875 10.0234375 C-11.47757824 8.4754397 -15.72506475 8.7907079 -20.3125 8.875 C-21.24384766 8.88402344 -22.17519531 8.89304687 -23.13476562 8.90234375 C-25.4234436 8.92581737 -27.71158672 8.95865271 -30 9 C-29.67 8.34 -29.34 7.68 -29 7 C-26.69 7 -24.38 7 -22 7 C-22 6.34 -22 5.68 -22 5 C-12.1 4.505 -12.1 4.505 -2 4 C-2 3.34 -2 2.68 -2 2 C-1.34 2 -0.68 2 0 2 C0 1.34 0 0.68 0 0 Z " fill="#AD4250" transform="translate(108,102)"/>
<path d="M0 0 C4.04352289 0.46656033 8.01928836 1.15560662 12 2 C12 5 12 5 10.625 6.6875 C9 8 9 8 7 8 C7 8.66 7 9.32 7 10 C5.39592672 10.02708567 3.7917215 10.04643483 2.1875 10.0625 C0.84751953 10.07990234 0.84751953 10.07990234 -0.51953125 10.09765625 C-3 10 -3 10 -6 9 C-6 8.34 -6 7.68 -6 7 C-6.66 7 -7.32 7 -8 7 C-7.875 5.125 -7.875 5.125 -7 3 C-4 1.8125 -4 1.8125 -1 1 C-0.67 0.67 -0.34 0.34 0 0 Z " fill="#F4F5F8" transform="translate(150,103)"/>
<path d="M0 0 C0 0.33 0 0.66 0 1 C-1.11375 1.28875 -2.2275 1.5775 -3.375 1.875 C-7.00291092 2.69241329 -7.00291092 2.69241329 -9 5 C-9.16681109 8.08347826 -9.16681109 8.08347826 -9 11 C-11.64738916 12.4606285 -12.89448334 13 -16 13 C-16 12.34 -16 11.68 -16 11 C-19.98637142 10.26979217 -19.98637142 10.26979217 -24 10 C-25.64594139 11.39588754 -25.64594139 11.39588754 -27 13 C-30.125 13.25 -30.125 13.25 -33 13 C-34 12 -34 12 -34.4375 8.625 C-34.75300217 4.91489453 -34.75300217 4.91489453 -37 2 C-35.68 2.33 -34.36 2.66 -33 3 C-33 5.64 -33 8.28 -33 11 C-31.68 11 -30.36 11 -29 11 C-29.33 10.01 -29.66 9.02 -30 8 C-26.26513121 7.4254048 -22.78706732 7 -19 7 C-18.67 6.34 -18.34 5.68 -18 5 C-15.69 5.33 -13.38 5.66 -11 6 C-11.33 4.35 -11.66 2.7 -12 1 C-8.00439392 -1.83022097 -4.57262677 -0.76210446 0 0 Z " fill="#DC2A31" transform="translate(174,92)"/>
<path d="M0 0 C0.33 0 0.66 0 1 0 C1 9.9 1 19.8 1 30 C-15.5 30.33 -32 30.66 -49 31 C-49.33 39.58 -49.66 48.16 -50 57 C-50.66 57 -51.32 57 -52 57 C-53.125 50.25 -53.125 50.25 -52 48 C-52 41.73 -52 35.46 -52 29 C-34.84 29 -17.68 29 0 29 C0 19.43 0 9.86 0 0 Z " fill="#D32B2F" transform="translate(269,79)"/>
<path d="M0 0 C0.33 1.32 0.66 2.64 1 4 C2.32 4.33 3.64 4.66 5 5 C4.42636089 8.87206399 2.65894107 11.18465063 0 14 C-0.99 14 -1.98 14 -3 14 C-3.33 14.66 -3.66 15.32 -4 16 C-6.475 15.01 -6.475 15.01 -9 14 C-8.58675744 8.7311573 -7.77055562 5.77055562 -4 2 C-1.75 0.6875 -1.75 0.6875 0 0 Z " fill="#304C7B" transform="translate(125,52)"/>
<path d="M0 0 C0.66 0 1.32 0 2 0 C2 13.86 2 27.72 2 42 C-1.96 43.98 -1.96 43.98 -6 46 C-6.495 44.515 -6.495 44.515 -7 43 C-5.02 42.34 -3.04 41.68 -1 41 C-0.67 28.79 -0.34 16.58 0 4 C-0.66 4 -1.32 4 -2 4 C-2.66 5.65 -3.32 7.3 -4 9 C-4.99 8.67 -5.98 8.34 -7 8 C-5.38405168 5.95880212 -3.7143618 3.95927063 -2 2 C-1.34 2 -0.68 2 0 2 C0 1.34 0 0.68 0 0 Z " fill="#CD4043" transform="translate(121,177)"/>
<path d="M0 0 C0.66 0.99 1.32 1.98 2 3 C1.01 2.67 0.02 2.34 -1 2 C-0.67 1.34 -0.34 0.68 0 0 Z M-2 4 C-1.67 5.65 -1.34 7.3 -1 9 C-3.31 9 -5.62 9 -8 9 C-8 9.66 -8 10.32 -8 11 C-9.98567708 10.96744792 -11.97135417 10.93489583 -13.95703125 10.90234375 C-16.20305461 10.91736783 -16.20305461 10.91736783 -19 12 C-19 12.66 -19 13.32 -19 14 C-20.32 14 -21.64 14 -23 14 C-22.51421457 10.87709365 -22.0013988 8.00419641 -21 5 C-20.08476562 5.01160156 -19.16953125 5.02320312 -18.2265625 5.03515625 C-17.03804687 5.04417969 -15.84953125 5.05320312 -14.625 5.0625 C-12.84996094 5.07990234 -12.84996094 5.07990234 -11.0390625 5.09765625 C-7.55094654 4.98557026 -5.62161406 4 -2 4 Z " fill="#E11E21" transform="translate(164,89)"/>
<path d="M0 0 C0.99 0.33 1.98 0.66 3 1 C3.02698189 2.62490954 3.04638757 4.24994633 3.0625 5.875 C3.07410156 6.77992187 3.08570313 7.68484375 3.09765625 8.6171875 C3 11 3 11 2 13 C-0.64 13 -3.28 13 -6 13 C-6.33 13.99 -6.66 14.98 -7 16 C-7.66 16 -8.32 16 -9 16 C-9.4375 13.5 -9.4375 13.5 -9 10 C-6.39054362 6.30155788 -3.19167606 3.19167606 0 0 Z " fill="#F6F8FA" transform="translate(134,55)"/>
<path d="M0 0 C5.54035996 0.72899473 10.69106483 2.32154835 16 4 C17.06992188 4.32355469 18.13984375 4.64710937 19.2421875 4.98046875 C20.85480469 5.48513672 20.85480469 5.48513672 22.5 6 C23.5003125 6.309375 24.500625 6.61875 25.53125 6.9375 C28 8 28 8 30 11 C31.67039161 18.92920462 32.33549869 26.91075389 32 35 C31.34 35 30.68 35 30 35 C29.94465088 34.34926514 29.88930176 33.69853027 29.83227539 33.02807617 C29.57946307 30.08087901 29.32104674 27.1341994 29.0625 24.1875 C28.97548828 23.16333984 28.88847656 22.13917969 28.79882812 21.08398438 C28.71181641 20.10107422 28.62480469 19.11816406 28.53515625 18.10546875 C28.41732788 16.74651489 28.41732788 16.74651489 28.29711914 15.36010742 C28.05953902 12.85319251 28.05953902 12.85319251 27 10 C25.13103708 9.26240572 25.13103708 9.26240572 22.875 8.9375 C19.86226205 8.37231228 17.13261234 7.72983007 14.1875 6.8125 C11.17246027 6.04396046 9.83331371 5.86667451 7 7 C6.67 5.68 6.34 4.36 6 3 C4.35 3 2.7 3 1 3 C0.67 2.01 0.34 1.02 0 0 Z " fill="#D23E45" transform="translate(170,23)"/>
<path d="M0 0 C0.103125 0.639375 0.20625 1.27875 0.3125 1.9375 C0.6528125 2.9584375 0.6528125 2.9584375 1 4 C1.99 4.33 2.98 4.66 4 5 C2.8125 6.5 2.8125 6.5 1 8 C-1.6875 8.1875 -1.6875 8.1875 -4 8 C-4 6.35 -4 4.7 -4 3 C-5.32 3 -6.64 3 -8 3 C-8 3.99 -8 4.98 -8 6 C-7.01 6.33 -6.02 6.66 -5 7 C-5.33 7.66 -5.66 8.32 -6 9 C-8.31 9 -10.62 9 -13 9 C-13.33 8.34 -13.66 7.68 -14 7 C-13.34 7 -12.68 7 -12 7 C-12.33 5.68 -12.66 4.36 -13 3 C-15.97 2.505 -15.97 2.505 -19 2 C-19 1.67 -19 1.34 -19 1 C-12.63849395 0.34513908 -6.39628979 -0.12068471 0 0 Z " fill="#1B3B6C" transform="translate(165,112)"/>
<path d="M0 0 C0.66 0.33 1.32 0.66 2 1 C-12.29619705 8.9356009 -33.45406149 10.88722897 -49.375 6.5625 C-50.92095694 6.05454272 -52.46331204 5.53534436 -54 5 C-55.32979042 4.65280216 -56.66212602 4.3146142 -58 4 C-58 3.34 -58 2.68 -58 2 C-56.06201479 2.30947671 -54.12462574 2.62268834 -52.1875 2.9375 C-51.10855469 3.11152344 -50.02960938 3.28554687 -48.91796875 3.46484375 C-46 4 -46 4 -43 5 C-29.27255387 6.01348253 -16.00673197 5.69373371 -3 1 C-2.01 0.67 -1.02 0.34 0 0 Z " fill="#F9C4C4" transform="translate(115,222)"/>
<path d="M0 0 C1.39712274 1.95597184 2.73779907 3.95436401 4 6 C3.01 6 2.02 6 1 6 C1 6.99 1 7.98 1 9 C0.34 9 -0.32 9 -1 9 C-1 9.66 -1 10.32 -1 11 C-0.34 11.33 0.32 11.66 1 12 C0.01 12.99 -0.98 13.98 -2 15 C-8.70387244 6.738041 -8.70387244 6.738041 -9 2 C-3.375 -1.125 -3.375 -1.125 0 0 Z " fill="#234474" transform="translate(115,111)"/>
<path d="M0 0 C19.8 0 39.6 0 60 0 C60 0.33 60 0.66 60 1 C40.53 1 21.06 1 1 1 C1 4.63 1 8.26 1 12 C0.72822205 14.5697576 0.40431881 17.13523754 0 19.6875 C-0.185625 20.88761719 -0.37125 22.08773437 -0.5625 23.32421875 C-0.706875 24.20722656 -0.85125 25.09023437 -1 26 C-1.99 26 -2.98 26 -4 26 C-3.51833244 23.5658586 -3.02952473 21.13516792 -2.5 18.7109375 C-1.14409092 12.37629975 -0.596453 6.560983 0 0 Z " fill="#D21E26" transform="translate(206,79)"/>
<path d="M0 0 C0.33 0.99 0.66 1.98 1 3 C1.66 3.33 2.32 3.66 3 4 C2.67 4.33 2.34 4.66 2 5 C1.76924918 6.34747084 1.58846937 7.70377565 1.4375 9.0625 C1.293125 10.361875 1.14875 11.66125 1 13 C0.01 13 -0.98 13 -2 13 C-2 12.34 -2 11.68 -2 11 C-2.66 11 -3.32 11 -4 11 C-4.33 12.65 -4.66 14.3 -5 16 C-5.66 16 -6.32 16 -7 16 C-8.57455739 12.85088521 -8.34799118 10.47991184 -8 7 C-5.99707521 3.52001484 -3.87946651 1.2931555 0 0 Z " fill="#FDF4F5" transform="translate(147,70)"/>
<path d="M0 0 C0 2.64 0 5.28 0 8 C7.92 7.505 7.92 7.505 16 7 C15.67 7.66 15.34 8.32 15 9 C13.35 9 11.7 9 10 9 C10 9.66 10 10.32 10 11 C6.7 11 3.4 11 0 11 C0 10.34 0 9.68 0 9 C-0.99 9.495 -0.99 9.495 -2 10 C-2.65555119 12.52733235 -2.65555119 12.52733235 -3 15 C-3.99 14.67 -4.98 14.34 -6 14 C-6.62674095 4.87743733 -6.62674095 4.87743733 -4.125 1.375 C-2 0 -2 0 0 0 Z " fill="#4A3058" transform="translate(86,90)"/>
<path d="M0 0 C0.33 0 0.66 0 1 0 C1 3.96 1 7.92 1 12 C3.31 11.34 5.62 10.68 8 10 C8.33 7.36 8.66 4.72 9 2 C9.33 2 9.66 2 10 2 C10.03867188 2.99966797 10.03867188 2.99966797 10.078125 4.01953125 C10.52396598 11.2644471 12.21898532 17.31262981 15 24 C9.25 25.125 9.25 25.125 7 24 C7 22.68 7 21.36 7 20 C8.32 20 9.64 20 11 20 C10.34 18.02 9.68 16.04 9 14 C8.236875 14.515625 7.47375 15.03125 6.6875 15.5625 C5.800625 16.036875 4.91375 16.51125 4 17 C3.01 16.67 2.02 16.34 1 16 C-0.14077657 12.57767028 -0.09815117 9.91326783 -0.0625 6.3125 C-0.05347656 5.13300781 -0.04445313 3.95351562 -0.03515625 2.73828125 C-0.02355469 1.83464844 -0.01195313 0.93101563 0 0 Z " fill="#5B7197" transform="translate(111,75)"/>
<path d="M0 0 C0.33 0.66 0.66 1.32 1 2 C0.01 2.33 -0.98 2.66 -2 3 C-1.96519531 4.02480469 -1.93039063 5.04960938 -1.89453125 6.10546875 C-1.86637965 7.46612936 -1.83908096 8.8268078 -1.8125 10.1875 C-1.77479492 11.19780273 -1.77479492 11.19780273 -1.73632812 12.22851562 C-1.67076522 16.70864748 -2.33256351 19.39440999 -5 23 C-3.35 23 -1.7 23 0 23 C0.33 23.66 0.66 24.32 1 25 C-2.375 25.1875 -2.375 25.1875 -6 25 C-8 22 -8 22 -7.75 19.9375 C-7 18 -7 18 -5 16 C-4.58333333 13 -4.58333333 13 -5 10 C-5.99 9.34 -6.98 8.68 -8 8 C-7.67 5.69 -7.34 3.38 -7 1 C-3.535 0.505 -3.535 0.505 0 0 Z " fill="#D8282A" transform="translate(136,69)"/>
<path d="M0 0 C3 1 3 1 4.75 3.375 C6 6 6 6 5 9 C4.01 9 3.02 9 2 9 C2 10.32 2 11.64 2 13 C3.65 13.33 5.3 13.66 7 14 C6.67 15.32 6.34 16.64 6 18 C5.34 18 4.68 18 4 18 C3.67 18.99 3.34 19.98 3 21 C3 19.68 3 18.36 3 17 C2.01 16.67 1.02 16.34 0 16 C-2.16102018 12.54236772 -3.31060408 10.59342417 -2.51953125 6.53515625 C-1.76931034 4.3056265 -0.95106814 2.15087719 0 0 Z " fill="#284774" transform="translate(181,54)"/>
<path d="M0 0 C0.99 0.33 1.98 0.66 3 1 C3.33 3.31 3.66 5.62 4 8 C4.598125 8.144375 5.19625 8.28875 5.8125 8.4375 C7.56150404 8.8872439 9.28677023 9.42892341 11 10 C10.34 11.32 9.68 12.64 9 14 C5.87709365 13.51421457 3.00419641 13.0013988 0 12 C-0.33 11.01 -0.66 10.02 -1 9 C-1.99 8.34 -2.98 7.68 -4 7 C-3.67 5.68 -3.34 4.36 -3 3 C-2.34 3 -1.68 3 -1 3 C-0.67 2.01 -0.34 1.02 0 0 Z " fill="#E21E1F" transform="translate(159,59)"/>
<path d="M0 0 C0.66 0.33 1.32 0.66 2 1 C2 4.63 2 8.26 2 12 C1.01 11.01 0.02 10.02 -1 9 C-1.99 8.67 -2.98 8.34 -4 8 C-4 9.65 -4 11.3 -4 13 C-2.35 13 -0.7 13 1 13 C0.67 14.98 0.34 16.96 0 19 C-0.33 18.34 -0.66 17.68 -1 17 C-2.98 17.33 -4.96 17.66 -7 18 C-6.85970581 15.8537974 -6.71261836 13.70803782 -6.5625 11.5625 C-6.48128906 10.36753906 -6.40007812 9.17257813 -6.31640625 7.94140625 C-6 5 -6 5 -5 4 C-3.33382885 3.95936168 -1.66611905 3.957279 0 4 C0 2.68 0 1.36 0 0 Z " fill="#1B3D6F" transform="translate(190,73)"/>
<path d="M0 0 C0.33 0.66 0.66 1.32 1 2 C-0.65 1.67 -2.3 1.34 -4 1 C-3.7215625 2.1446875 -3.7215625 2.1446875 -3.4375 3.3125 C-3 6 -3 6 -4 9 C-3.2575 8.505 -2.515 8.01 -1.75 7.5 C1 6 1 6 5 6 C4.814375 6.78375 4.62875 7.5675 4.4375 8.375 C3.74037734 10.97089775 3.74037734 10.97089775 5 13 C-0.73783544 12.55862804 -5.29517116 10.17947381 -10 7 C-10.33 6.34 -10.66 5.68 -11 5 C-10.34 5 -9.68 5 -9 5 C-8.71125 4.360625 -8.4225 3.72125 -8.125 3.0625 C-6.14499356 -0.56751181 -3.81564568 -0.10041173 0 0 Z " fill="#4F6B91" transform="translate(138,108)"/>
<path d="M0 0 C0.99 0 1.98 0 3 0 C3.02697137 2.60423592 3.04682489 5.20819244 3.0625 7.8125 C3.07087891 8.55048828 3.07925781 9.28847656 3.08789062 10.04882812 C3.10259828 13.29922068 3.03531702 15.89404895 2 19 C1.64456573 21.33006911 1.3086247 23.66327016 1 26 C0.01 26.33 -0.98 26.66 -2 27 C-3.21869929 29.50447516 -3.21869929 29.50447516 -4 32 C-4.66 32 -5.32 32 -6 32 C-3 23 -3 23 -1.9375 20.25 C-0.76380898 16.18120445 -0.5463879 12.33828597 -0.375 8.125 C-0.31699219 6.949375 -0.31699219 6.949375 -0.2578125 5.75 C-0.16433378 3.83368633 -0.08111505 1.91687681 0 0 Z " fill="#3A5682" transform="translate(200,74)"/>
<path d="M0 0 C0.28875 0.61875 0.5775 1.2375 0.875 1.875 C1.93720042 4.13325765 1.93720042 4.13325765 4 6 C4 6.99 4 7.98 4 9 C2.35 9 0.7 9 -1 9 C-1.33 11.64 -1.66 14.28 -2 17 C-3.32 17 -4.64 17 -6 17 C-7.375 14.4375 -7.375 14.4375 -8 11 C-6.72883585 8.96175404 -5.27850659 7.40337338 -3.578125 5.7109375 C-1.92333159 3.91687929 -0.98846454 2.21919981 0 0 Z " fill="#47668E" transform="translate(180,94)"/>
<path d="M0 0 C0.66 0 1.32 0 2 0 C2 0.66 2 1.32 2 2 C6.95 1.67 11.9 1.34 17 1 C16.67 2.65 16.34 4.3 16 6 C10.39 6 4.78 6 -1 6 C-1 1 -1 1 0 0 Z " fill="#163B70" transform="translate(84,99)"/>
<path d="M0 0 C-1.32 0.99 -2.64 1.98 -4 3 C-3.67 3.99 -3.34 4.98 -3 6 C-3.99 6.33 -4.98 6.66 -6 7 C-5.938125 8.258125 -5.87625 9.51625 -5.8125 10.8125 C-5.83065617 13.37705844 -5.8484013 14.71463773 -7.0625 17 C-10.02087678 18.52690415 -12.73716599 18.18468872 -16 18 C-16.33 18.66 -16.66 19.32 -17 20 C-17 18.68 -17 17.36 -17 16 C-14.36 16 -11.72 16 -9 16 C-9.08701172 14.53626953 -9.08701172 14.53626953 -9.17578125 13.04296875 C-9.22089844 11.77066406 -9.26601562 10.49835937 -9.3125 9.1875 C-9.39951172 7.29064453 -9.39951172 7.29064453 -9.48828125 5.35546875 C-9 2 -9 2 -6.625 0.03125 C-3.80706703 -1.07579509 -2.75562872 -1.12266355 0 0 Z " fill="#EEDBDD" transform="translate(145,52)"/>
<path d="M0 0 C10.71978116 -0.61548983 10.71978116 -0.61548983 15.25 1.5625 C17.5907625 4.82284776 17.37692389 7.0799915 17 11 C16.67 11 16.34 11 16 11 C16 9.35 16 7.7 16 6 C13.9837767 6.71563266 13.9837767 6.71563266 12 8 C11.19471111 10.05000871 11.19471111 10.05000871 11 12 C9.68 12.33 8.36 12.66 7 13 C7.33 12.443125 7.66 11.88625 8 11.3125 C9.14011312 8.67598842 9.2306312 6.84445144 9 4 C7.50256881 2.50256881 6.01175761 2.66797307 3.9375 2.4375 C2.638125 2.293125 1.33875 2.14875 0 2 C0 1.34 0 0.68 0 0 Z " fill="#4B6084" transform="translate(207,41)"/>
<path d="M0 0 C0.66 0 1.32 0 2 0 C2.66 7.92 3.32 15.84 4 24 C3.34 24 2.68 24 2 24 C2 24.99 2 25.98 2 27 C2.99 27.33 3.98 27.66 5 28 C4.21625 28.598125 3.4325 29.19625 2.625 29.8125 C-0.14574323 31.91085249 -0.14574323 31.91085249 -2 35 C-2 32.69 -2 30.38 -2 28 C-2.99 27.67 -3.98 27.34 -5 27 C-4 25 -4 25 2 23 C1.34 15.41 0.68 7.82 0 0 Z " fill="#EFD8DC" transform="translate(200,35)"/>
<path d="M0 0 C3.73982558 1.32703488 3.73982558 1.32703488 5 3.625 C5.309375 4.305625 5.61875 4.98625 5.9375 5.6875 C6.2675 6.3475 6.5975 7.0075 6.9375 7.6875 C6.2775 7.6875 5.6175 7.6875 4.9375 7.6875 C4.9375 8.6775 4.9375 9.6675 4.9375 10.6875 C0.1875 11.8125 0.1875 11.8125 -2.0625 10.6875 C-2.0625 8.0475 -2.0625 5.4075 -2.0625 2.6875 C-3.0525 2.3575 -4.0425 2.0275 -5.0625 1.6875 C-2.0625 -0.3125 -2.0625 -0.3125 0 0 Z " fill="#F9FAF9" transform="translate(167.0625,54.3125)"/>
<path d="M0 0 C2.19050021 0.09017996 4.378466 0.24666208 6.5625 0.4375 C7.76003906 0.53933594 8.95757812 0.64117188 10.19140625 0.74609375 C11.11824219 0.82988281 12.04507813 0.91367187 13 1 C13 1.33 13 1.66 13 2 C12.18917969 2.03738281 11.37835938 2.07476562 10.54296875 2.11328125 C-0.40564834 2.76331556 -9.2870509 4.15185881 -18.22265625 10.79296875 C-20 12 -20 12 -22 12 C-22 11.01 -22 10.02 -22 9 C-20.68 9 -19.36 9 -18 9 C-18 8.01 -18 7.02 -18 6 C-16.35 6 -14.7 6 -13 6 C-13 5.34 -13 4.68 -13 4 C-9.95401253 1.96934169 -8.87187319 1.70517596 -5.375 1.4375 C-2.38885578 1.41022777 -2.38885578 1.41022777 0 0 Z " fill="#D33B3D" transform="translate(143,31)"/>
<path d="M0 0 C0.66 0 1.32 0 2 0 C1.67 2.97 1.34 5.94 1 9 C1.66 9 2.32 9 3 9 C3.33 8.01 3.66 7.02 4 6 C4.66 6 5.32 6 6 6 C6 6.66 6 7.32 6 8 C6.66 8.33 7.32 8.66 8 9 C7.01 9 6.02 9 5 9 C5 9.66 5 10.32 5 11 C1.54785147 13.30143236 0.76520676 13.13833854 -3.1875 12.625 C-4.08855469 12.51414062 -4.98960937 12.40328125 -5.91796875 12.2890625 C-6.60503906 12.19367188 -7.29210937 12.09828125 -8 12 C-7.01 11.67 -6.02 11.34 -5 11 C-4.67 10.01 -4.34 9.02 -4 8 C-3.34 8 -2.68 8 -2 8 C-1.67 8.33 -1.34 8.66 -1 9 C-0.67 6.03 -0.34 3.06 0 0 Z " fill="#DB7E82" transform="translate(153,81)"/>
<path d="M0 0 C0.33 0 0.66 0 1 0 C1.27863374 7.55407017 1.33215338 14.50176993 -3 21 C-3.99 20.34 -4.98 19.68 -6 19 C-5.34 17.68 -4.68 16.36 -4 15 C-4.99 14.67 -5.98 14.34 -7 14 C-5.35 14 -3.7 14 -2 14 C-1.67 12.68 -1.34 11.36 -1 10 C-2.65 10 -4.3 10 -6 10 C-6 8.35 -6 6.7 -6 5 C-2.125 5.875 -2.125 5.875 -1 7 C-0.67 4.69 -0.34 2.38 0 0 Z " fill="#445C83" transform="translate(192,76)"/>
<path d="M0 0 C1.32 0 2.64 0 4 0 C4 1.65 4 3.3 4 5 C4.99 5.33 5.98 5.66 7 6 C1.16033289 7.98797178 -5.40125686 9.61045304 -11.26953125 6.984375 C-12.12611328 6.49710937 -12.12611328 6.49710937 -13 6 C-11.35 5.67 -9.7 5.34 -8 5 C-8.33 3.68 -8.66 2.36 -9 1 C-8.01 1 -7.02 1 -6 1 C-5.67 2.32 -5.34 3.64 -5 5 C-2.69 5 -0.38 5 2 5 C1.34 4.34 0.68 3.68 0 3 C0 2.01 0 1.02 0 0 Z " fill="#758CAD" transform="translate(157,115)"/>
<path d="M0 0 C0.94875 0.04125 1.8975 0.0825 2.875 0.125 C3.205 1.115 3.535 2.105 3.875 3.125 C2.555 2.795 1.235 2.465 -0.125 2.125 C-0.125 2.785 -0.125 3.445 -0.125 4.125 C-1.445 4.125 -2.765 4.125 -4.125 4.125 C-3.465 4.455 -2.805 4.785 -2.125 5.125 C-2.02022488 10.91091511 -2.13249455 16.41809366 -3.125 22.125 C-3.455 22.125 -3.785 22.125 -4.125 22.125 C-4.125 18.165 -4.125 14.205 -4.125 10.125 C-4.785 9.795 -5.445 9.465 -6.125 9.125 C-5.13392857 0.20535714 -5.13392857 0.20535714 0 0 Z " fill="#193C6D" transform="translate(206.125,64.875)"/>
<path d="M0 0 C0 7.35923608 -6.8384932 14.30693143 -11.484375 19.6015625 C-13 21 -13 21 -15 21 C-14.69201674 19.51988629 -14.378482 18.04092675 -14.0625 16.5625 C-13.80146484 15.32693359 -13.80146484 15.32693359 -13.53515625 14.06640625 C-13 12 -13 12 -12 11 C-10.00041636 10.95919217 -7.99954746 10.95745644 -6 11 C-5.83177734 10.12601563 -5.83177734 10.12601563 -5.66015625 9.234375 C-4.93999124 6.79689343 -3.95620605 5.2749414 -2.4375 3.25 C-1.98246094 2.63640625 -1.52742187 2.0228125 -1.05859375 1.390625 C-0.70925781 0.93171875 -0.35992187 0.4728125 0 0 Z " fill="#46325A" transform="translate(195,117)"/>
<path d="M0 0 C2.54384726 1.27192363 2.69368156 2.19948469 3.6875 4.8125 C3.95949219 5.49957031 4.23148438 6.18664062 4.51171875 6.89453125 C5.06812731 9.29376496 4.77364938 10.6894364 4 13 C2.68 12.34 1.36 11.68 0 11 C0 10.01 0 9.02 0 8 C-1.32 7.34 -2.64 6.68 -4 6 C-4 4.68 -4 3.36 -4 2 C-2.125 0.9375 -2.125 0.9375 0 0 Z " fill="#31507B" transform="translate(187,61)"/>
<path d="M0 0 C1.4513915 4.51544021 0.40110748 7.10910831 -1.51953125 11.375 C-3.80719143 17.3715901 -3.57033108 23.65948769 -3.6875 30 C-3.72166016 31.25167969 -3.75582031 32.50335938 -3.79101562 33.79296875 C-3.87300969 36.86188957 -3.94232019 39.93054206 -4 43 C-4.33 43 -4.66 43 -5 43 C-6.03194763 12.66709003 -6.03194763 12.66709003 0 0 Z " fill="#DA6767" transform="translate(16,120)"/>
<path d="M0 0 C3.16115776 1.36983503 3.9927092 1.9890638 6 5 C5.01 5.66 4.02 6.32 3 7 C1.80767387 9.05003955 1.80767387 9.05003955 1 11 C-0.65 10.01 -2.3 9.02 -4 8 C-3.67 6.68 -3.34 5.36 -3 4 C-2.34 4.33 -1.68 4.66 -1 5 C-0.67 3.35 -0.34 1.7 0 0 Z " fill="#21426F" transform="translate(128,103)"/>
<path d="M0 0 C8.05587774 1.05998391 15.63557478 3.63797979 23 7 C23 7.33 23 7.66 23 8 C19.78078614 8.19510387 17.56994412 7.87173772 14.4375 6.9375 C11.24828016 6.06771277 9.98268829 5.80692468 7 7 C6.67 5.68 6.34 4.36 6 3 C4.35 3 2.7 3 1 3 C0.67 2.01 0.34 1.02 0 0 Z " fill="#D62F36" transform="translate(170,23)"/>
<path d="M0 0 C1.134375 0.020625 2.26875 0.04125 3.4375 0.0625 C3.4375 1.0525 3.4375 2.0425 3.4375 3.0625 C4.0975 3.0625 4.7575 3.0625 5.4375 3.0625 C5.4375 2.4025 5.4375 1.7425 5.4375 1.0625 C6.4275 1.0625 7.4175 1.0625 8.4375 1.0625 C8.183004 2.54456495 7.90838238 4.02318615 7.625 5.5 C7.47417969 6.32371094 7.32335937 7.14742188 7.16796875 7.99609375 C6.92691406 8.67800781 6.68585938 9.35992187 6.4375 10.0625 C5.4475 10.3925 4.4575 10.7225 3.4375 11.0625 C2.3125 6.3125 2.3125 6.3125 3.4375 4.0625 C1.7875 4.0625 0.1375 4.0625 -1.5625 4.0625 C-1.8925 3.4025 -2.2225 2.7425 -2.5625 2.0625 C-3.2225 1.7325 -3.8825 1.4025 -4.5625 1.0625 C-3.5625 0.0625 -3.5625 0.0625 0 0 Z " fill="#F1A6AA" transform="translate(149.5625,68.9375)"/>
<path d="M0 0 C2.64 0 5.28 0 8 0 C8.103125 0.639375 8.20625 1.27875 8.3125 1.9375 C8.6528125 2.9584375 8.6528125 2.9584375 9 4 C9.99 4.33 10.98 4.66 12 5 C10.8125 6.5 10.8125 6.5 9 8 C6.3125 8.1875 6.3125 8.1875 4 8 C4 6.35 4 4.7 4 3 C3.01 3 2.02 3 1 3 C0.67 2.01 0.34 1.02 0 0 Z " fill="#214171" transform="translate(157,112)"/>
<path d="M0 0 C0.99 0.495 0.99 0.495 2 1 C2.40729228 3.32156597 2.74438677 5.6568787 3 8 C5.87450983 8.25048636 5.87450983 8.25048636 9 8 C10.02019573 7.0206121 11.02149805 6.02104551 12 5 C15.74849077 4.53143865 16.76746204 4.84497469 20 7 C19.67 7.66 19.34 8.32 19 9 C17.88625 8.79375 16.7725 8.5875 15.625 8.375 C14.42875 8.25125 13.2325 8.1275 12 8 C11.34 8.66 10.68 9.32 10 10 C9.175 10.144375 8.35 10.28875 7.5 10.4375 C4.65063471 10.7765556 4.65063471 10.7765556 3 14 C0.31907309 11.31907309 0.61329743 9.60832637 0.375 5.875 C0.30023438 4.77929688 0.22546875 3.68359375 0.1484375 2.5546875 C0.09945312 1.71164063 0.05046875 0.86859375 0 0 Z " fill="#FCEEEF" transform="translate(138,96)"/>
<path d="M0 0 C2 4 2 4 2 6 C3.32 5.67 4.64 5.34 6 5 C6.33 3.68 6.66 2.36 7 1 C7.33 1 7.66 1 8 1 C8 4.3 8 7.6 8 11 C7.67 10.34 7.34 9.68 7 9 C4.69 9.66 2.38 10.32 0 11 C0 7.37 0 3.74 0 0 Z " fill="#1D3C6D" transform="translate(112,76)"/>
<path d="M0 0 C1.32 0.33 2.64 0.66 4 1 C4 3.64 4 6.28 4 9 C5.32 9 6.64 9 8 9 C7.67 8.01 7.34 7.02 7 6 C13.4 4.76923077 13.4 4.76923077 16.4375 5.9375 C16.953125 6.288125 17.46875 6.63875 18 7 C17.05125 7.28875 16.1025 7.5775 15.125 7.875 C11.94788422 8.76825109 11.94788422 8.76825109 10 11 C6.9375 11.1875 6.9375 11.1875 4 11 C3 10 3 10 2.5625 6.625 C2.24699783 2.91489453 2.24699783 2.91489453 0 0 Z " fill="#D63E44" transform="translate(137,94)"/>
<path d="M0 0 C0 0.66 0 1.32 0 2 C0.99 2.33 1.98 2.66 3 3 C2.01 3.495 2.01 3.495 1 4 C-0.73173793 3.41983864 -2.43734883 2.76059526 -4.125 2.0625 C-13.35493601 -1.38973581 -19.70826099 0.13049237 -29 3 C-29 2.34 -29 1.68 -29 1 C-18.99838181 -2.64484134 -10.20119365 -3.07960563 0 0 Z " fill="#F9BEBD" transform="translate(166,18)"/>
<path d="M0 0 C11.07902217 1.71006254 11.07902217 1.71006254 15.375 3.0625 C21.15377979 4.55701202 27.05508961 4.68667601 33 5 C33 5.33 33 5.66 33 6 C22.81862031 6.30241722 13.7389081 6.39279651 4 3 C2.67020958 2.65280216 1.33787398 2.3146142 0 2 C0 1.34 0 0.68 0 0 Z " fill="#FBE0DE" transform="translate(57,224)"/>
<path d="M0 0 C0.66 0 1.32 0 2 0 C2 0.66 2 1.32 2 2 C2.66 2.33 3.32 2.66 4 3 C4 3.66 4 4.32 4 5 C3.34 5 2.68 5 2 5 C2.66 5.66 3.32 6.32 4 7 C3.8125 9 3.8125 9 3 11 C2.01 11.66 1.02 12.32 0 13 C0 12.34 0 11.68 0 11 C-0.66 11 -1.32 11 -2 11 C-2.05399736 9.54207116 -2.09279177 8.08357288 -2.125 6.625 C-2.15980469 5.40683594 -2.15980469 5.40683594 -2.1953125 4.1640625 C-2 2 -2 2 0 0 Z " fill="#E3898D" transform="translate(160,74)"/>
<path d="M0 0 C0 1.32 0 2.64 0 4 C-0.99 4 -1.98 4 -3 4 C-3 4.66 -3 5.32 -3 6 C-9.625 5.25 -9.625 5.25 -13 3 C-12.34 3 -11.68 3 -11 3 C-11 2.34 -11 1.68 -11 1 C-3.375 0 -3.375 0 0 0 Z " fill="#D4222A" transform="translate(109,105)"/>
<path d="M0 0 C1.0209375 0.5259375 1.0209375 0.5259375 2.0625 1.0625 C5.7087789 2.22620603 8.28489978 1.72845102 12 1 C11.34 2.98 10.68 4.96 10 7 C9.34 7 8.68 7 8 7 C7.34 7.66 6.68 8.32 6 9 C4.99406757 7.8803014 3.9954151 6.7540588 3 5.625 C2.443125 4.99851562 1.88625 4.37203125 1.3125 3.7265625 C0 2 0 2 0 0 Z " fill="#34517E" transform="translate(117,101)"/>
<path d="M0 0 C0.99 0.33 1.98 0.66 3 1 C3 2.32 3 3.64 3 5 C2.34 5 1.68 5 1 5 C1 6.32 1 7.64 1 9 C0.34 9 -0.32 9 -1 9 C-1.33 9.99 -1.66 10.98 -2 12 C-4.0625 12.6875 -4.0625 12.6875 -6 13 C-5.67 11.02 -5.34 9.04 -5 7 C-4.01 7 -3.02 7 -2 7 C-1.34 4.69 -0.68 2.38 0 0 Z " fill="#193E70" transform="translate(198,99)"/>
<path d="M0 0 C-1.32 0.33 -2.64 0.66 -4 1 C-4 1.66 -4 2.32 -4 3 C-6.77109307 3.05392397 -9.54113818 3.09363455 -12.3125 3.125 C-13.09818359 3.14175781 -13.88386719 3.15851563 -14.69335938 3.17578125 C-15.45068359 3.18222656 -16.20800781 3.18867188 -16.98828125 3.1953125 C-18.03302612 3.21102295 -18.03302612 3.21102295 -19.09887695 3.22705078 C-21 3 -21 3 -24 1 C-22.80761719 0.93941406 -21.61523438 0.87882813 -20.38671875 0.81640625 C-18.82030075 0.73198851 -17.25389512 0.64734113 -15.6875 0.5625 C-14.90181641 0.52318359 -14.11613281 0.48386719 -13.30664062 0.44335938 C-12.54931641 0.40146484 -11.79199219 0.35957031 -11.01171875 0.31640625 C-10.31522217 0.27974854 -9.61872559 0.24309082 -8.90112305 0.20532227 C-1.80712804 -0.56083284 -1.80712804 -0.56083284 0 0 Z " fill="#CD373A" transform="translate(104,192)"/>
<path d="M0 0 C3.32710168 4.99065252 5.58827908 10.92111612 5 17 C5.66 17 6.32 17 7 17 C7.53190541 18.43344 8.05015258 19.87195367 8.5625 21.3125 C8.85253906 22.11300781 9.14257812 22.91351563 9.44140625 23.73828125 C10 26 10 26 9 29 C-0.55805085 7.25466102 -0.55805085 7.25466102 0 0 Z " fill="#D0373C" transform="translate(12,164)"/>
<path d="M0 0 C0.45375 0.474375 0.9075 0.94875 1.375 1.4375 C2.93258204 3.09027808 2.93258204 3.09027808 5 4 C4.67 4.99 4.34 5.98 4 7 C4 6.34 4 5.68 4 5 C-0.50802601 6.25805377 -3.4912812 7.90407165 -7 11 C-7 10.01 -7 9.02 -7 8 C-6.34 8 -5.68 8 -5 8 C-5 7.34 -5 6.68 -5 6 C-5.99 5.67 -6.98 5.34 -8 5 C-7 3 -7 3 -4 1.9375 C-2.515 1.4734375 -2.515 1.4734375 -1 1 C-0.67 0.67 -0.34 0.34 0 0 Z " fill="#FACBC8" transform="translate(169,71)"/>
<path d="M0 0 C0.66 0.66 1.32 1.32 2 2 C0.68 2 -0.64 2 -2 2 C-2.33 2.99 -2.66 3.98 -3 5 C-3.99 5 -4.98 5 -6 5 C-6 5.66 -6 6.32 -6 7 C-8.475 6.01 -8.475 6.01 -11 5 C-10.67 4.01 -10.34 3.02 -10 2 C-9.34 2 -8.68 2 -8 2 C-7.67 2.33 -7.34 2.66 -7 3 C-7 2.01 -7 1.02 -7 0 C-4.29393021 -1.35303489 -2.8671629 -0.7884698 0 0 Z " fill="#4F6A90" transform="translate(177,49)"/>
<path d="M0 0 C-7.26 2.31 -14.52 4.62 -22 7 C-22.33 8.65 -22.66 10.3 -23 12 C-23.33 12 -23.66 12 -24 12 C-24.3125 9.25 -24.3125 9.25 -24 6 C-20.79531832 2.2945868 -17.93090457 1.58283368 -13.125 1.21875 C-10.88134004 0.987785 -8.85769036 0.48137672 -6.6875 -0.125 C-3 -1 -3 -1 0 0 Z " fill="#FCD0CE" transform="translate(126,25)"/>
<path d="M0 0 C0.66 0.33 1.32 0.66 2 1 C1.67 4.3 1.34 7.6 1 11 C2.98 11.66 4.96 12.32 7 13 C7 13.99 7 14.98 7 16 C5.3603125 16.2165625 5.3603125 16.2165625 3.6875 16.4375 C0.06877013 16.88288104 0.06877013 16.88288104 -3 18 C-3 17.34 -3 16.68 -3 16 C-2.50886719 15.60167969 -2.01773438 15.20335938 -1.51171875 14.79296875 C0.7745924 12.08129738 0.290638 9.78481278 0.1875 6.3125 C0.14689453 4.54326172 0.14689453 4.54326172 0.10546875 2.73828125 C0.05326172 1.38283203 0.05326172 1.38283203 0 0 Z " fill="#C62631" transform="translate(79,93)"/>
<path d="M0 0 C2.9375 0.375 2.9375 0.375 6 1 C6.33 1.66 6.66 2.32 7 3 C5.68 3.33 4.36 3.66 3 4 C3.33 5.32 3.66 6.64 4 8 C3.34 8 2.68 8 2 8 C2 7.34 2 6.68 2 6 C0.02 6.99 0.02 6.99 -2 8 C-2.99 7.01 -3.98 6.02 -5 5 C-4.01 5 -3.02 5 -2 5 C-1.34 3.35 -0.68 1.7 0 0 Z " fill="#1F416E" transform="translate(167,45)"/>
<path d="M0 0 C1.2065625 0.0309375 1.2065625 0.0309375 2.4375 0.0625 C1.4475 0.5575 1.4475 0.5575 0.4375 1.0625 C0.4375 1.7225 0.4375 2.3825 0.4375 3.0625 C-17.03125 5.75 -17.03125 5.75 -22.5625 2.0625 C-21.99217041 2.03744385 -21.42184082 2.0123877 -20.83422852 1.98657227 C-18.26423843 1.87093451 -15.69464473 1.74806376 -13.125 1.625 C-12.22716797 1.58568359 -11.32933594 1.54636719 -10.40429688 1.50585938 C-9.55029297 1.46396484 -8.69628906 1.42207031 -7.81640625 1.37890625 C-7.02564697 1.34224854 -6.2348877 1.30559082 -5.42016602 1.26782227 C-2.82760296 0.98127403 -2.85788876 0.0697046 0 0 Z " fill="#462D5B" transform="translate(105.5625,102.9375)"/>
<path d="M0 0 C1.32 0.33 2.64 0.66 4 1 C3.67 3.97 3.34 6.94 3 10 C11.91 9.01 11.91 9.01 21 8 C20 10 20 10 18.390625 10.62109375 C15.15648557 11.13369428 12.02272949 11.09280305 8.75 11.0625 C7.48671875 11.05347656 6.2234375 11.04445313 4.921875 11.03515625 C3.95765625 11.02355469 2.9934375 11.01195313 2 11 C2 8.36 2 5.72 2 3 C-0.475 4.485 -0.475 4.485 -3 6 C-2 4 -1 2 0 0 Z " fill="#A8283C" transform="translate(84,87)"/>
<path d="M0 0 C0.66 0 1.32 0 2 0 C3.0070238 5.03511899 2.97387813 8.23947038 1 13 C0.01 12.67 -0.98 12.34 -2 12 C-2.05395478 10.37536158 -2.09277195 8.75021459 -2.125 7.125 C-2.14820312 6.22007813 -2.17140625 5.31515625 -2.1953125 4.3828125 C-2 2 -2 2 0 0 Z " fill="#363261" transform="translate(82,92)"/>
<path d="M0 0 C0 0.66 0 1.32 0 2 C-0.66 2.474375 -1.32 2.94875 -2 3.4375 C-2.99 4.2109375 -2.99 4.2109375 -4 5 C-4 5.99 -4 6.98 -4 8 C-2.68 8.33 -1.36 8.66 0 9 C-0.33 9.99 -0.66 10.98 -1 12 C-1 11.34 -1 10.68 -1 10 C-1.66 10 -2.32 10 -3 10 C-3.33 11.65 -3.66 13.3 -4 15 C-4.66 15 -5.32 15 -6 15 C-7.57455739 11.85088521 -7.34799118 9.47991184 -7 6 C-3.49673203 0 -3.49673203 0 0 0 Z " fill="#FCD9D6" transform="translate(146,71)"/>
<path d="M0 0 C1.5 1.0625 1.5 1.0625 3 3 C3.1875 6.6875 3.1875 6.6875 3 10 C-1 10 -1 10 -2.75 8.5 C-3.1625 8.005 -3.575 7.51 -4 7 C-2.79618552 4.50638429 -1.54571278 2.31856917 0 0 Z " fill="#506D8F" transform="translate(121,54)"/>
<path d="M0 0 C2.0625 0.4375 2.0625 0.4375 4 1 C3.67386719 1.49628906 3.34773438 1.99257813 3.01171875 2.50390625 C0.19308521 6.88567579 -2.08254414 11.15590098 -4 16 C-4.33 16 -4.66 16 -5 16 C-5.33 13.69 -5.66 11.38 -6 9 C-4.68 8.34 -3.36 7.68 -2 7 C-2 6.01 -2 5.02 -2 4 C-1.34 4 -0.68 4 0 4 C-0.33 3.01 -0.66 2.02 -1 1 C-0.67 0.67 -0.34 0.34 0 0 Z " fill="#D5343A" transform="translate(111,49)"/>
<path d="M0 0 C4.07763771 2.86536704 6.02677065 5.43041625 8 10 C7.401875 10.12375 6.80375 10.2475 6.1875 10.375 C3.73768652 10.95475985 3.73768652 10.95475985 1 13 C0.67 11.35 0.34 9.7 0 8 C1.32 7.34 2.64 6.68 4 6 C3.01 5.67 2.02 5.34 1 5 C-0.1875 2.9375 -0.1875 2.9375 -1 1 C-0.67 0.67 -0.34 0.34 0 0 Z " fill="#FAE3E3" transform="translate(185,46)"/>
<path d="M0 0 C0.33 0.66 0.66 1.32 1 2 C1.99 2 2.98 2 4 2 C4 3.65 4 5.3 4 7 C4.66 7.33 5.32 7.66 6 8 C5.01 8.66 4.02 9.32 3 10 C3 9.34 3 8.68 3 8 C2.360625 7.896875 1.72125 7.79375 1.0625 7.6875 C0.381875 7.460625 -0.29875 7.23375 -1 7 C-1.33 6.01 -1.66 5.02 -2 4 C-2.99 4 -3.98 4 -5 4 C-3.35 2.68 -1.7 1.36 0 0 Z " fill="#587196" transform="translate(127,49)"/>
<path d="M0 0 C0.33 1.32 0.66 2.64 1 4 C0.09507812 3.94779297 0.09507812 3.94779297 -0.828125 3.89453125 C-5.80990164 3.72579365 -8.03811527 3.85781556 -12 7 C-15.25 6.6875 -15.25 6.6875 -18 6 C-15.05060648 4.48433944 -12.06643299 3.13709894 -9 1.875 C-8.154375 1.52179687 -7.30875 1.16859375 -6.4375 0.8046875 C-4 0 -4 0 0 0 Z M-4 4 C-3.01 4.33 -2.02 4.66 -1 5 C-1.99 5 -2.98 5 -4 5 C-4 4.67 -4 4.34 -4 4 Z " fill="#D83137" transform="translate(148,18)"/>
<path d="M0 0 C0.33 0 0.66 0 1 0 C1.29211698 8.86088167 0.44796872 17.26047454 -1 26 C-1.99 26 -2.98 26 -4 26 C-3.51833244 23.5658586 -3.02952473 21.13516792 -2.5 18.7109375 C-1.16944932 12.49477105 -0.45783727 6.33743175 0 0 Z " fill="#B2293A" transform="translate(206,79)"/>
<path d="M0 0 C0.66 0.99 1.32 1.98 2 3 C5.06556598 3.73343428 5.06556598 3.73343428 8 4 C8 4.33 8 4.66 8 5 C6.54207116 5.05399736 5.08357288 5.09279177 3.625 5.125 C2.81289062 5.14820313 2.00078125 5.17140625 1.1640625 5.1953125 C-1 5 -1 5 -3 3 C-3.66 4.98 -4.32 6.96 -5 9 C-5.66 9 -6.32 9 -7 9 C-7.1875 5.625 -7.1875 5.625 -7 2 C-4 0 -4 0 0 0 Z " fill="#DA5859" transform="translate(146,57)"/>
<path d="M0 0 C0 0.33 0 0.66 0 1 C-6.27 1.33 -12.54 1.66 -19 2 C-19 2.66 -19 3.32 -19 4 C-27.03571429 6.27678571 -27.03571429 6.27678571 -31 5 C-21.72657262 -1.18228492 -10.66685377 -0.33763781 0 0 Z " fill="#FBC7C8" transform="translate(160,33)"/>
<path d="M0 0 C1.32 0 2.64 0 4 0 C4 2.66666667 4 5.33333333 4 8 C-1.94 7.34 -7.88 6.68 -14 6 C-14 5.67 -14 5.34 -14 5 C-9.38 5 -4.76 5 0 5 C0 3.35 0 1.7 0 0 Z " fill="#7F93B3" transform="translate(161,45)"/>
<path d="M0 0 C0.66 0.33 1.32 0.66 2 1 C2 3.31 2 5.62 2 8 C0.68 8 -0.64 8 -2 8 C-2.33 6.68 -2.66 5.36 -3 4 C-4.65 4 -6.3 4 -8 4 C-5.31143836 2.20762558 -3.0466145 1.01553817 0 0 Z " fill="#597196" transform="translate(168,108)"/>
<path d="M0 0 C0.99 0 1.98 0 3 0 C3 3.96 3 7.92 3 12 C2.34 10.68 1.68 9.36 1 8 C0.566875 8.495 0.13375 8.99 -0.3125 9.5 C-2 11 -2 11 -5 11 C-4.67 9.02 -4.34 7.04 -4 5 C-3.67 5.66 -3.34 6.32 -3 7 C-2.34 7 -1.68 7 -1 7 C-0.67 6.34 -0.34 5.68 0 5 C0.66 5.33 1.32 5.66 2 6 C2 5.01 2 4.02 2 3 C1.34 3 0.68 3 0 3 C0 2.01 0 1.02 0 0 Z " fill="#FBC5C4" transform="translate(150,81)"/>
<path d="M0 0 C2.76276177 0.52268466 5.3260876 1.10869587 8 2 C7.34 3.32 6.68 4.64 6 6 C0.25 5.125 0.25 5.125 -2 4 C-1.34 2.68 -0.68 1.36 0 0 Z " fill="#DD1E20" transform="translate(162,67)"/>
<path d="M0 0 C0.33 0 0.66 0 1 0 C1 8.58 1 17.16 1 26 C0.34 26 -0.32 26 -1 26 C-2.125 19.25 -2.125 19.25 -1 17 C-0.76725791 14.12089412 -0.58027243 11.25853505 -0.4375 8.375 C-0.39431641 7.57320313 -0.35113281 6.77140625 -0.30664062 5.9453125 C-0.20048543 3.9637489 -0.09973145 1.98189729 0 0 Z " fill="#CE2425" transform="translate(218,110)"/>
<path d="M0 0 C0.33 0 0.66 0 1 0 C1.94693195 3.7016431 2.30443767 5.39112465 0.5625 8.875 C0.046875 9.57625 -0.46875 10.2775 -1 11 C0.65 11 2.3 11 4 11 C4.33 11.66 4.66 12.32 5 13 C1.625 13.1875 1.625 13.1875 -2 13 C-4 10 -4 10 -3.75 7.9375 C-3 6 -3 6 -1 4 C-0.3574765 1.93125966 -0.3574765 1.93125966 0 0 Z " fill="#D53941" transform="translate(132,81)"/>
<path d="M0 0 C0.66 0 1.32 0 2 0 C1.52343588 1.79236067 1.04366502 3.58386897 0.5625 5.375 C0.29566406 6.37273437 0.02882812 7.37046875 -0.24609375 8.3984375 C-1 11 -1 11 -2 13 C-3.97522846 14.04808041 -5.97481509 15.0520411 -8 16 C-6.94851925 13.81615536 -5.84330831 11.74793076 -4.5625 9.6875 C-2.73359212 6.54177845 -1.38496619 3.36348933 0 0 Z " fill="#AF293B" transform="translate(198,112)"/>
<path d="M0 0 C0.515625 0.2475 1.03125 0.495 1.5625 0.75 C0.5725 0.75 -0.4175 0.75 -1.4375 0.75 C-1.664375 1.389375 -1.89125 2.02875 -2.125 2.6875 C-3.4375 4.75 -3.4375 4.75 -6.0625 5.5 C-7.238125 5.62375 -7.238125 5.62375 -8.4375 5.75 C-8.4375 6.41 -8.4375 7.07 -8.4375 7.75 C-10.4175 8.08 -12.3975 8.41 -14.4375 8.75 C-5.86523438 -0.6015625 -5.86523438 -0.6015625 0 0 Z " fill="#FBDAD8" transform="translate(77.4375,111.25)"/>
<path d="M0 0 C0 0.33 0 0.66 0 1 C-1.670625 1.433125 -1.670625 1.433125 -3.375 1.875 C-7.00291092 2.69241329 -7.00291092 2.69241329 -9 5 C-9.16681109 8.08347826 -9.16681109 8.08347826 -9 11 C-9.66 11 -10.32 11 -11 11 C-11.33 7.7 -11.66 4.4 -12 1 C-7.01222852 -1.49388574 -5.33016752 -0.88836125 0 0 Z " fill="#D02A2E" transform="translate(174,92)"/>
<path d="M0 0 C1.98 0.66 3.96 1.32 6 2 C5.51917969 2.39832031 5.03835937 2.79664062 4.54296875 3.20703125 C2.62608175 5.43450247 2.52258357 6.78834669 2.3125 9.6875 C2.21388672 10.89986328 2.21388672 10.89986328 2.11328125 12.13671875 C2.07589844 12.75160156 2.03851563 13.36648437 2 14 C1.34 13.67 0.68 13.34 0 13 C0 8.71 0 4.42 0 0 Z " fill="#FEE7E6" transform="translate(156,71)"/>
<path d="M0 0 C6.26480445 1.74732641 10.88233868 3.97120279 16 8 C14.28515625 8.6796875 14.28515625 8.6796875 12 9 C9.74609375 7.8203125 9.74609375 7.8203125 7.4375 6.125 C4.85934074 4.25550846 3.04396084 3.01465361 0 2 C0 1.34 0 0.68 0 0 Z " fill="#5A2E55" transform="translate(132,145)"/>
<path d="M0 0 C1.54571278 2.31856917 2.79618552 4.50638429 4 7 C3.01 7.495 3.01 7.495 2 8 C1.67 7.34 1.34 6.68 1 6 C-1.87364791 5.58253392 -1.87364791 5.58253392 -5 6 C-6.9354148 8.39056942 -6.9354148 8.39056942 -8 11 C-8.33 9.68 -8.66 8.36 -9 7 C-6.03 4.69 -3.06 2.38 0 0 Z " fill="#314E76" transform="translate(208,60)"/>
<path d="M0 0 C2.71097227 0.37392721 3.82000467 0.81357627 5.75 2.8125 C7 5 7 5 7 9 C8.32 9.33 9.64 9.66 11 10 C9.02 10.99 9.02 10.99 7 12 C5.83061933 10.18924982 4.66456267 8.37635257 3.5 6.5625 C2.8503125 5.55316406 2.200625 4.54382812 1.53125 3.50390625 C0 1 0 1 0 0 Z " fill="#D33D41" transform="translate(189,49)"/>
<path d="M0 0 C0 0.66 0 1.32 0 2 C0.66 2.33 1.32 2.66 2 3 C2 4.32 2 5.64 2 7 C1.46375 6.855625 0.9275 6.71125 0.375 6.5625 C-2.39915827 5.90546252 -5.18525388 5.44780052 -8 5 C-3.16129032 0 -3.16129032 0 0 0 Z " fill="#5E759F" transform="translate(136,44)"/>
<path d="M0 0 C0 0.99 0 1.98 0 3 C-0.99 3 -1.98 3 -3 3 C-3.66 4.32 -4.32 5.64 -5 7 C-5.33 6.34 -5.66 5.68 -6 5 C-6.99 5.33 -7.98 5.66 -9 6 C-9.66 5.34 -10.32 4.68 -11 4 C-4.5 0 -4.5 0 0 0 Z " fill="#2E4C79" transform="translate(184,120)"/>
<path d="M0 0 C0.33 0.66 0.66 1.32 1 2 C3.02463255 2.65213292 3.02463255 2.65213292 5 3 C5 3.99 5 4.98 5 6 C2.36 6.33 -0.28 6.66 -3 7 C-3 6.34 -3 5.68 -3 5 C-3.66 4.34 -4.32 3.68 -5 3 C-3.35 3 -1.7 3 0 3 C0 2.01 0 1.02 0 0 Z " fill="#1E3E70" transform="translate(122,97)"/>
<path d="M0 0 C0.66 0 1.32 0 2 0 C2.33692785 1.60341555 2.66941093 3.20776555 3 4.8125 C3.185625 5.70582031 3.37125 6.59914063 3.5625 7.51953125 C4 10 4 10 4 13 C3.01 12.34 2.02 11.68 1 11 C1 11.66 1 12.32 1 13 C0.34 13 -0.32 13 -1 13 C-1 12.01 -1 11.02 -1 10 C-0.34 10 0.32 10 1 10 C0.649375 8.906875 0.29875 7.81375 -0.0625 6.6875 C-1 3 -1 3 0 0 Z " fill="#D62A2F" transform="translate(137,77)"/>
<path d="M0 0 C0.33 0.99 0.66 1.98 1 3 C-0.8125 5.6875 -0.8125 5.6875 -3 8 C-3.66 8 -4.32 8 -5 8 C-5 9.32 -5 10.64 -5 12 C-6.32 12.33 -7.64 12.66 -9 13 C-7.47987323 7.59510481 -3.72614782 4.01507372 0 0 Z " fill="#D63E44" transform="translate(31,97)"/>
<path d="M0 0 C0.33 0 0.66 0 1 0 C1.11459026 7.41017023 0.91160286 14.64206267 0 22 C-0.33 22 -0.66 22 -1 22 C-1.22595954 18.89685213 -1.42770896 15.79259193 -1.625 12.6875 C-1.68945312 11.80642578 -1.75390625 10.92535156 -1.8203125 10.01757812 C-1.871875 9.17001953 -1.9234375 8.32246094 -1.9765625 7.44921875 C-2.02893066 6.66893311 -2.08129883 5.88864746 -2.13525391 5.0847168 C-2 3 -2 3 0 0 Z " fill="#FCDCDB" transform="translate(100,46)"/>
<path d="M0 0 C0.66 1.32 1.32 2.64 2 4 C2.66 4.66 3.32 5.32 4 6 C4 6.99 4 7.98 4 9 C1.36 8.67 -1.28 8.34 -4 8 C-2.68 5.36 -1.36 2.72 0 0 Z " fill="#6277A1" transform="translate(180,94)"/>
<path d="M0 0 C0.33 0.99 0.66 1.98 1 3 C3.00016466 4.20882096 3.00016466 4.20882096 5 5 C5.25 7.8125 5.25 7.8125 5 11 C3 12.875 3 12.875 1 14 C1.62759865 11.07120629 2.58622659 8.63904371 4 6 C3.01 6.33 2.02 6.66 1 7 C0.34 6.67 -0.32 6.34 -1 6 C-0.67 4.02 -0.34 2.04 0 0 Z " fill="#FBDFDC" transform="translate(127,74)"/>
<path d="M0 0 C0 2.33333333 0 4.66666667 0 7 C-2.375 6.8125 -2.375 6.8125 -5 6 C-6.3125 3.4375 -6.3125 3.4375 -7 1 C-4.53721199 -0.231394 -2.7204945 -0.07159196 0 0 Z " fill="#6982A6" transform="translate(147,41)"/>
<path d="M0 0 C2.97 0 5.94 0 9 0 C9.33 0.99 9.66 1.98 10 3 C11.65 3 13.3 3 15 3 C15.33 3.99 15.66 4.98 16 6 C10.63904723 4.41078475 5.29156027 2.81027062 0 1 C0 0.67 0 0.34 0 0 Z " fill="#DC5457" transform="translate(160,33)"/>
<path d="M0 0 C-1.28813342 0.83878455 -2.58063256 1.67086783 -3.875 2.5 C-4.59429687 2.9640625 -5.31359375 3.428125 -6.0546875 3.90625 C-8 5 -8 5 -10 5 C-10 4.34 -10 3.68 -10 3 C-10.99 3 -11.98 3 -13 3 C-13 2.01 -13 1.02 -13 0 C-12.34 0 -11.68 0 -11 0 C-11 0.66 -11 1.32 -11 2 C-10.45730469 1.77183594 -9.91460937 1.54367188 -9.35546875 1.30859375 C-8.64003906 1.02113281 -7.92460938 0.73367187 -7.1875 0.4375 C-6.47980469 0.14746094 -5.77210937 -0.14257812 -5.04296875 -0.44140625 C-3 -1 -3 -1 0 0 Z " fill="#D63538" transform="translate(75,112)"/>
<path d="M0 0 C1.32 0.33 2.64 0.66 4 1 C4.625 3.375 4.625 3.375 5 6 C4.34 6.66 3.68 7.32 3 8 C2.01 8 1.02 8 0 8 C0 5.36 0 2.72 0 0 Z " fill="#1C3D6D" transform="translate(134,109)"/>
<path d="M0 0 C7.42857143 -0.14285714 7.42857143 -0.14285714 11 1 C11 1.66 11 2.32 11 3 C11.763125 3.12375 12.52625 3.2475 13.3125 3.375 C16 4 16 4 19 6 C15.37471432 6.20140476 13.13498292 5.85776765 10 4 C10 3.34 10 2.68 10 2 C9.01 2 8.02 2 7 2 C7 2.66 7 3.32 7 4 C6.34 4 5.68 4 5 4 C5 3.01 5 2.02 5 1 C3.35 1 1.7 1 0 1 C0 0.67 0 0.34 0 0 Z " fill="#D9565C" transform="translate(148,68)"/>
<path d="M0 0 C0 2.62113708 -0.31292445 4.50935112 -1 7 C-1.66 7 -2.32 7 -3 7 C-3.66 8.65 -4.32 10.3 -5 12 C-5.33 12 -5.66 12 -6 12 C-6.3125 9.3125 -6.3125 9.3125 -6 6 C-3.5625 3.1875 -3.5625 3.1875 -1 1 C-0.67 0.67 -0.34 0.34 0 0 Z " fill="#323360" transform="translate(201,105)"/>
<path d="M0 0 C2.64 0.33 5.28 0.66 8 1 C8 1.99 8 2.98 8 4 C6.25 5.125 6.25 5.125 4 6 C1.75 5.125 1.75 5.125 0 4 C0 2.68 0 1.36 0 0 Z " fill="#1A3D6B" transform="translate(181,94)"/>
<path d="M0 0 C0.103125 0.598125 0.20625 1.19625 0.3125 1.8125 C0.83254644 4.07972457 0.83254644 4.07972457 2.5625 5.5 C4 7 4 7 4 11 C2.68 11 1.36 11 0 11 C0 9.35 0 7.7 0 6 C-0.66 6 -1.32 6 -2 6 C-1.34 4.02 -0.68 2.04 0 0 Z " fill="#617CA0" transform="translate(116,61)"/>
<path d="M0 0 C4.75 0.875 4.75 0.875 7 2 C7.59355614 4.64860427 7.74209269 7.29197322 8 10 C7.01 10 6.02 10 5 10 C4.67 7.69 4.34 5.38 4 3 C2.02 3 0.04 3 -2 3 C-1.34 2.01 -0.68 1.02 0 0 Z " fill="#D4474E" transform="translate(157,57)"/>
<path d="M0 0 C2.69999726 1.00285612 5.09778489 2.05962493 7.5625 3.5625 C9.78146478 4.87112025 11.49075157 5.53532436 14 6 C14 6.66 14 7.32 14 8 C14.66 8 15.32 8 16 8 C16 8.66 16 9.32 16 10 C12.35524815 8.63649571 9.08755513 6.998536 5.75 5 C4.44289063 4.2265625 4.44289063 4.2265625 3.109375 3.4375 C1 2 1 2 0 0 Z " fill="#D04148" transform="translate(40,213)"/>
<path d="M0 0 C0.99 0.33 1.98 0.66 3 1 C4.125 5.75 4.125 5.75 3 8 C1.68 7.67 0.36 7.34 -1 7 C-1.625 5.1875 -1.625 5.1875 -2 3 C-1.34 2.01 -0.68 1.02 0 0 Z " fill="#1A3D6D" transform="translate(171,106)"/>
<path d="M0 0 C0.99 0.33 1.98 0.66 3 1 C3 1.66 3 2.32 3 3 C4.32 3 5.64 3 7 3 C7 3.66 7 4.32 7 5 C6.34 5 5.68 5 5 5 C4.67 5.66 4.34 6.32 4 7 C1.525 6.01 1.525 6.01 -1 5 C-0.67 3.35 -0.34 1.7 0 0 Z " fill="#1A3D70" transform="translate(117,61)"/>
<path d="M0 0 C2 1 4 2 6 3 C6 3.99 6 4.98 6 6 C6.99 6.33 7.98 6.66 9 7 C9 7.66 9 8.32 9 9 C9.66 9.33 10.32 9.66 11 10 C8 10 8 10 6.2109375 8.57421875 C5.60507812 7.95160156 4.99921875 7.32898438 4.375 6.6875 C3.45847656 5.76517578 3.45847656 5.76517578 2.5234375 4.82421875 C1 3 1 3 0 0 Z " fill="#D0393D" transform="translate(28,201)"/>
<path d="M0 0 C0.99 0.33 1.98 0.66 3 1 C1.68 5.29 0.36 9.58 -1 14 C-1.33 14 -1.66 14 -2 14 C-1.85866501 12.22880197 -1.71176792 10.45804713 -1.5625 8.6875 C-1.48128906 7.70136719 -1.40007813 6.71523437 -1.31640625 5.69921875 C-1 3 -1 3 0 0 Z " fill="#FEE6E2" transform="translate(13,121)"/>
<path d="M0 0 C0.33 0 0.66 0 1 0 C1 3.96 1 7.92 1 12 C-0.98 12.33 -2.96 12.66 -5 13 C-5 12.01 -5 11.02 -5 10 C-4.360625 9.835 -3.72125 9.67 -3.0625 9.5 C-0.83880759 8.218214 -0.83880759 8.218214 -0.51171875 6.0859375 C-0.2724022 4.06424845 -0.13106972 2.03158061 0 0 Z " fill="#657FA3" transform="translate(120,77)"/>
<path d="M0 0 C1.32 1.65 2.64 3.3 4 5 C3.67 5.66 3.34 6.32 3 7 C0.24921116 7.91692961 -1.35948913 8.10886083 -4.1875 8.0625 C-6.0746875 8.0315625 -6.0746875 8.0315625 -8 8 C-8 7.67 -8 7.34 -8 7 C-6.02 6.67 -4.04 6.34 -2 6 C-1.34 4.02 -0.68 2.04 0 0 Z " fill="#F9D7D6" transform="translate(176,86)"/>
<path d="M0 0 C-1.93625098 0.98163422 -3.87404539 1.96022454 -5.8125 2.9375 C-7.43091797 3.75541016 -7.43091797 3.75541016 -9.08203125 4.58984375 C-12 6 -12 6 -15 7 C-14.67 6.01 -14.34 5.02 -14 4 C-12.35 3.67 -10.7 3.34 -9 3 C-9 2.34 -9 1.68 -9 1 C-3.375 -1.125 -3.375 -1.125 0 0 Z " fill="#FED2D1" transform="translate(57,80)"/>
<path d="M0 0 C1.32 0.66 2.64 1.32 4 2 C3.360625 2.350625 2.72125 2.70125 2.0625 3.0625 C-0.82163832 5.77184206 -0.7100822 8.15858911 -1 12 C-1.33 12 -1.66 12 -2 12 C-2.144375 10.906875 -2.28875 9.81375 -2.4375 8.6875 C-2.88288104 5.06877013 -2.88288104 5.06877013 -4 2 C-2.68 2 -1.36 2 0 2 C0 1.34 0 0.68 0 0 Z " fill="#3B597F" transform="translate(206,67)"/>
<path d="M0 0 C2.5 0.3125 2.5 0.3125 5.5 2.3125 C5.17 2.9725 4.84 3.6325 4.5 4.3125 C3.38625 4.10625 2.2725 3.9 1.125 3.6875 C-0.07125 3.56375 -1.2675 3.44 -2.5 3.3125 C-3.16 3.9725 -3.82 4.6325 -4.5 5.3125 C-7.125 5.4375 -7.125 5.4375 -9.5 5.3125 C-8.901875 5.044375 -8.30375 4.77625 -7.6875 4.5 C-5.45707307 3.45069956 -5.45707307 3.45069956 -4.0625 1.6875 C-2.5 0.3125 -2.5 0.3125 0 0 Z " fill="#FACAC7" transform="translate(152.5,100.6875)"/>
<path d="M0 0 C-1.32 2.31 -2.64 4.62 -4 7 C-5.32 6.01 -6.64 5.02 -8 4 C-7.01 4 -6.02 4 -5 4 C-5.33 2.68 -5.66 1.36 -6 0 C-2.25 -1.125 -2.25 -1.125 0 0 Z " fill="#314D7A" transform="translate(189,99)"/>
<path d="M0 0 C1.98 0 3.96 0 6 0 C5.67 1.65 5.34 3.3 5 5 C3.68 5.33 2.36 5.66 1 6 C0.67 4.02 0.34 2.04 0 0 Z " fill="#637EA5" transform="translate(113,76)"/>
<path d="M0 0 C0.99 0.33 1.98 0.66 3 1 C0.03 4.96 0.03 4.96 -3 9 C-3.66 7.68 -4.32 6.36 -5 5 C-4.67 4.01 -4.34 3.02 -4 2 C-2.515 2.99 -2.515 2.99 -1 4 C-0.67 2.68 -0.34 1.36 0 0 Z " fill="#D63437" transform="translate(143,68)"/>
<path d="M0 0 C0 2.31 0 4.62 0 7 C-0.66 7 -1.32 7 -2 7 C-2 6.34 -2 5.68 -2 5 C-3.65 5 -5.3 5 -7 5 C-6.34 4.67 -5.68 4.34 -5 4 C-5 3.34 -5 2.68 -5 2 C-1.125 0 -1.125 0 0 0 Z " fill="#C62430" transform="translate(171,146)"/>
<path d="M0 0 C0.33 0.99 0.66 1.98 1 3 C1.99 3.33 2.98 3.66 4 4 C4 4.33 4 4.66 4 5 C0.625 5.1875 0.625 5.1875 -3 5 C-3.66 4.01 -4.32 3.02 -5 2 C-3.35 1.34 -1.7 0.68 0 0 Z " fill="#1D3D6C" transform="translate(146,116)"/>
<path d="M0 0 C0.33 1.32 0.66 2.64 1 4 C2.32 4.33 3.64 4.66 5 5 C4.67 5.66 4.34 6.32 4 7 C0.9375 7.625 0.9375 7.625 -2 8 C-2.33 6.02 -2.66 4.04 -3 2 C-2.01 1.34 -1.02 0.68 0 0 Z " fill="#1B4071" transform="translate(125,52)"/>
<path d="M0 0 C0 0.66 0 1.32 0 2 C0.99 2.33 1.98 2.66 3 3 C2.67 3.99 2.34 4.98 2 6 C1.67 5.34 1.34 4.68 1 4 C-1.34386809 3.08968728 -1.34386809 3.08968728 -4.0625 2.375 C-4.98160156 2.11460938 -5.90070313 1.85421875 -6.84765625 1.5859375 C-7.91306641 1.29589844 -7.91306641 1.29589844 -9 1 C-9 0.67 -9 0.34 -9 0 C-3.375 -1.125 -3.375 -1.125 0 0 Z " fill="#FAC5C1" transform="translate(197,28)"/>
<path d="M0 0 C0.33 0 0.66 0 1 0 C1 1.65 1 3.3 1 5 C-1.64 5.99 -4.28 6.98 -7 8 C-6.67 7.01 -6.34 6.02 -6 5 C-5.34 5 -4.68 5 -4 5 C-4 4.34 -4 3.68 -4 3 C-3.01 2.67 -2.02 2.34 -1 2 C-0.67 1.34 -0.34 0.68 0 0 Z " fill="#DA3035" transform="translate(162,87)"/>
<path d="M0 0 C0.99 0 1.98 0 3 0 C3.625 2.3125 3.625 2.3125 4 5 C3.01 6.485 3.01 6.485 2 8 C2 7.34 2 6.68 2 6 C1.34 6 0.68 6 0 6 C-0.66 4.68 -1.32 3.36 -2 2 C-1.34 2 -0.68 2 0 2 C0 1.34 0 0.68 0 0 Z " fill="#EF9593" transform="translate(142,84)"/>
<path d="M0 0 C1.19625 0.185625 2.3925 0.37125 3.625 0.5625 C7.28283707 1.0311197 10.37862166 0.81481013 14 0 C12.22555028 2.24606427 11.41647515 2.95081002 8.51953125 3.29296875 C7.62621094 3.25816406 6.73289063 3.22335938 5.8125 3.1875 C4.91144531 3.16042969 4.01039063 3.13335937 3.08203125 3.10546875 C2.05142578 3.05326172 2.05142578 3.05326172 1 3 C0.67 2.01 0.34 1.02 0 0 Z " fill="#BD2733" transform="translate(146,154)"/>
<path d="M0 0 C1.32 0 2.64 0 4 0 C4.66 1.32 5.32 2.64 6 4 C6.33 4 6.66 4 7 4 C7 5.65 7 7.3 7 9 C4.03595495 6.19195732 1.55500981 3.81684226 0 0 Z " fill="#304B79" transform="translate(114,126)"/>
<path d="M0 0 C1.00361368 3.12235367 0.97763219 4.88935211 0 8 C-0.350625 9.2375 -0.70125 10.475 -1.0625 11.75 C-1.371875 12.8225 -1.68125 13.895 -2 15 C-2.33 15 -2.66 15 -3 15 C-2.5547115 9.72684667 -1.91626837 4.98229776 0 0 Z " fill="#D04247" transform="translate(16,120)"/>
<path d="M0 0 C-0.33 1.32 -0.66 2.64 -1 4 C-3.97 3.505 -3.97 3.505 -7 3 C-7 2.34 -7 1.68 -7 1 C-4.53721199 -0.231394 -2.7204945 -0.07159196 0 0 Z " fill="#6F89AB" transform="translate(188,91)"/>
<path d="M0 0 C0 0.99 0 1.98 0 3 C-1.61992165 3.86375896 -3.24611861 4.71575854 -4.875 5.5625 C-6.23238281 6.27599609 -6.23238281 6.27599609 -7.6171875 7.00390625 C-8.40351562 7.33261719 -9.18984375 7.66132812 -10 8 C-10.66 7.67 -11.32 7.34 -12 7 C-10.56542672 6.0165504 -9.12722594 5.03839079 -7.6875 4.0625 C-6.88699219 3.51722656 -6.08648437 2.97195312 -5.26171875 2.41015625 C-3 1 -3 1 0 0 Z " fill="#D13F47" transform="translate(53,81)"/>
<path d="M0 0 C1.32 0.66 2.64 1.32 4 2 C3.34 3.32 2.68 4.64 2 6 C0.68 5.67 -0.64 5.34 -2 5 C-1.34 3.35 -0.68 1.7 0 0 Z " fill="#1D3C6E" transform="translate(180,59)"/>
<path d="M0 0 C2.31 0 4.62 0 7 0 C4.47519307 2.52480693 2.86176966 2.55738633 -0.625 3.125 C-1.62789063 3.29257813 -2.63078125 3.46015625 -3.6640625 3.6328125 C-4.43492188 3.75398437 -5.20578125 3.87515625 -6 4 C-5.67 3.34 -5.34 2.68 -5 2 C-3.35 2 -1.7 2 0 2 C0 1.34 0 0.68 0 0 Z " fill="#CD3337" transform="translate(104,223)"/>
<path d="M0 0 C1.65 0.33 3.3 0.66 5 1 C5 2.32 5 3.64 5 5 C4.01 5.495 4.01 5.495 3 6 C0.875 5.0625 0.875 5.0625 -1 4 C-0.67 2.68 -0.34 1.36 0 0 Z " fill="#D72D32" transform="translate(57,219)"/>
<path d="M0 0 C0.66 0.33 1.32 0.66 2 1 C-2.30769231 5.92307692 -2.30769231 5.92307692 -5.8125 6.3125 C-6.8953125 6.1578125 -6.8953125 6.1578125 -8 6 C-6.32169152 2.64338305 -3.29210653 1.67493139 0 0 Z " fill="#D64044" transform="translate(112,185)"/>
<path d="M0 0 C0.66 0 1.32 0 2 0 C2 0.66 2 1.32 2 2 C2.9590625 2.3403125 2.9590625 2.3403125 3.9375 2.6875 C6 4 6 4 6.75 6.625 C6.8325 7.40875 6.915 8.1925 7 9 C4.03595495 6.19195732 1.55500981 3.81684226 0 0 Z " fill="#FCD9D4" transform="translate(57,175)"/>
<path d="M0 0 C1.65 0 3.3 0 5 0 C5.33 0.66 5.66 1.32 6 2 C0.82421875 5.22265625 0.82421875 5.22265625 -1 6 C-1.99 5.67 -2.98 5.34 -4 5 C-3.01 4.34 -2.02 3.68 -1 3 C-0.67 2.01 -0.34 1.02 0 0 Z " fill="#304E77" transform="translate(170,113)"/>
<path d="M0 0 C2.475 0.99 2.475 0.99 5 2 C4.67 2.99 4.34 3.98 4 5 C2.35 4.67 0.7 4.34 -1 4 C-0.67 2.68 -0.34 1.36 0 0 Z " fill="#1C3F71" transform="translate(179,103)"/>
<path d="M0 0 C0.66 0 1.32 0 2 0 C2.103125 0.639375 2.20625 1.27875 2.3125 1.9375 C2.539375 2.618125 2.76625 3.29875 3 4 C3.99 4.33 4.98 4.66 6 5 C2.7 4.67 -0.6 4.34 -4 4 C-3.01 3.67 -2.02 3.34 -1 3 C-0.67 2.01 -0.34 1.02 0 0 Z " fill="#E5696B" transform="translate(149,89)"/>
<path d="M0 0 C1.98 0.495 1.98 0.495 4 1 C4 2.32 4 3.64 4 5 C2.35 5 0.7 5 -1 5 C-0.67 3.35 -0.34 1.7 0 0 Z " fill="#E41C20" transform="translate(170,86)"/>
<path d="M0 0 C0.763125 0.0825 1.52625 0.165 2.3125 0.25 C1.6525 2.23 0.9925 4.21 0.3125 6.25 C-0.0175 5.26 -0.3475 4.27 -0.6875 3.25 C-2.3375 3.58 -3.9875 3.91 -5.6875 4.25 C-3.34903846 0.31153846 -3.34903846 0.31153846 0 0 Z " fill="#CF363A" transform="translate(170.6875,75.75)"/>
<path d="M0 0 C2.97 0 5.94 0 9 0 C8.34 1.32 7.68 2.64 7 4 C3.38144425 3.37611108 2.8290723 2.8290723 0 0 Z " fill="#E3E5ED" transform="translate(173,46)"/>
<path d="M0 0 C-1.98 0.99 -1.98 0.99 -4 2 C-4 3.32 -4 4.64 -4 6 C-4.99 6 -5.98 6 -7 6 C-7 4.35 -7 2.7 -7 1 C-4.53721199 -0.231394 -2.7204945 -0.07159196 0 0 Z " fill="#6880A6" transform="translate(160,41)"/>
<path d="M0 0 C-0.66 0 -1.32 0 -2 0 C-2 0.66 -2 1.32 -2 2 C-7.94 2.495 -7.94 2.495 -14 3 C-4.52173913 -1.73913043 -4.52173913 -1.73913043 0 0 Z " fill="#D43B40" transform="translate(130,25)"/>
<path d="M0 0 C0 0.66 0 1.32 0 2 C-4.46236469 3.80619523 -7.31034294 4.11658501 -12 3 C-12 2.67 -12 2.34 -12 2 C-10.37548581 1.66430703 -8.75037083 1.3315204 -7.125 1 C-6.22007812 0.814375 -5.31515625 0.62875 -4.3828125 0.4375 C-2 0 -2 0 0 0 Z " fill="#552D54" transform="translate(160,152)"/>
<path d="M0 0 C0.33 0 0.66 0 1 0 C1 2.31 1 4.62 1 7 C0.01 7 -0.98 7 -2 7 C-2.33 7.99 -2.66 8.98 -3 10 C-3.33 9.34 -3.66 8.68 -4 8 C-3.22265625 6.0546875 -3.22265625 6.0546875 -2.0625 3.875 C-1.49208984 2.78832031 -1.49208984 2.78832031 -0.91015625 1.6796875 C-0.60980469 1.12539062 -0.30945313 0.57109375 0 0 Z " fill="#D23E43" transform="translate(21,110)"/>
<path d="M0 0 C0.66 0.33 1.32 0.66 2 1 C2 1.99 2 2.98 2 4 C1.34 4 0.68 4 0 4 C-0.33 4.66 -0.66 5.32 -1 6 C-1.99 6 -2.98 6 -4 6 C-4 4.68 -4 3.36 -4 2 C-2.125 0.9375 -2.125 0.9375 0 0 Z " fill="#748AA9" transform="translate(187,61)"/>
<path d="M0 0 C0.66 0.66 1.32 1.32 2 2 C0.35 3.98 -1.3 5.96 -3 8 C-3.66 7.34 -4.32 6.68 -5 6 C-3.35 4.02 -1.7 2.04 0 0 Z " fill="#E1EBF2" transform="translate(213,51)"/>
<path d="M0 0 C1.65 0 3.3 0 5 0 C5.33 1.65 5.66 3.3 6 5 C5.34 5 4.68 5 4 5 C4 4.01 4 3.02 4 2 C3.01 2 2.02 2 1 2 C0.67 2.99 0.34 3.98 0 5 C0 3.35 0 1.7 0 0 Z " fill="#36527C" transform="translate(147,114)"/>
<path d="M0 0 C0.99 0 1.98 0 3 0 C3 2.31 3 4.62 3 7 C2.34 7 1.68 7 1 7 C1 6.34 1 5.68 1 5 C0.34 5 -0.32 5 -1 5 C-0.67 3.35 -0.34 1.7 0 0 Z " fill="#D07373" transform="translate(150,73)"/>
<path d="M0 0 C0.33 0.66 0.66 1.32 1 2 C-0.98 2 -2.96 2 -5 2 C-5.33 3.98 -5.66 5.96 -6 8 C-6.66 8 -7.32 8 -8 8 C-7.67 5.69 -7.34 3.38 -7 1 C-3.535 0.505 -3.535 0.505 0 0 Z " fill="#D1424A" transform="translate(136,69)"/>
<path d="M0 0 C0.99 0.33 1.98 0.66 3 1 C3 3.31 3 5.62 3 8 C2.34 8 1.68 8 1 8 C1 6.35 1 4.7 1 3 C0.01 3 -0.98 3 -2 3 C-2 2.34 -2 1.68 -2 1 C-1.34 0.67 -0.68 0.34 0 0 Z " fill="#183D6E" transform="translate(130,48)"/>
<path d="M0 0 C1.2065625 0.0309375 1.2065625 0.0309375 2.4375 0.0625 C0.79580472 2.08304804 -0.87161778 4.08293058 -2.5625 6.0625 C-2.8925 6.0625 -3.2225 6.0625 -3.5625 6.0625 C-3.605221 4.39638095 -3.60313832 2.72867115 -3.5625 1.0625 C-2.5625 0.0625 -2.5625 0.0625 0 0 Z " fill="#D32A32" transform="translate(118.5625,42.9375)"/>
<path d="M0 0 C0 0.66 0 1.32 0 2 C-2.64 2.99 -5.28 3.98 -8 5 C-8 4.01 -8 3.02 -8 2 C-2.25 0 -2.25 0 0 0 Z " fill="#D23642" transform="translate(122,218)"/>
<path d="M0 0 C0.33 0.66 0.66 1.32 1 2 C-0.65 1.67 -2.3 1.34 -4 1 C-4 2.32 -4 3.64 -4 5 C-4.99 5 -5.98 5 -7 5 C-7 3.68 -7 2.36 -7 1 C-4.53721199 -0.231394 -2.7204945 -0.07159196 0 0 Z " fill="#889EBC" transform="translate(138,108)"/>
<path d="M0 0 C4 4.75 4 4.75 4 7 C2.02 7.33 0.04 7.66 -2 8 C-1.01 7.67 -0.02 7.34 1 7 C1 5.68 1 4.36 1 3 C0.01 2.67 -0.98 2.34 -2 2 C-1.34 2 -0.68 2 0 2 C0 1.34 0 0.68 0 0 Z " fill="#BB4550" transform="translate(108,102)"/>
<path d="M0 0 C0.66 0.33 1.32 0.66 2 1 C1.34 2.65 0.68 4.3 0 6 C-0.99 5.67 -1.98 5.34 -3 5 C-3 3.68 -3 2.36 -3 1 C-2.01 0.67 -1.02 0.34 0 0 Z " fill="#748CAE" transform="translate(127,102)"/>
<path d="M0 0 C1.65 1.32 3.3 2.64 5 4 C4.67 5.98 4.34 7.96 4 10 C3.67 10 3.34 10 3 10 C3 8.35 3 6.7 3 5 C2.01 4.67 1.02 4.34 0 4 C0 2.68 0 1.36 0 0 Z " fill="#CE3639" transform="translate(171,82)"/>
<path d="M0 0 C0.66 0 1.32 0 2 0 C2 0.66 2 1.32 2 2 C2.66 2.33 3.32 2.66 4 3 C4 3.66 4 4.32 4 5 C2.35 5 0.7 5 -1 5 C-1 1 -1 1 0 0 Z " fill="#DF8084" transform="translate(160,74)"/>
<path d="M0 0 C1.98 0.66 3.96 1.32 6 2 C1.125 6 1.125 6 0 6 C0 4.02 0 2.04 0 0 Z " fill="#FBD4D3" transform="translate(156,71)"/>
<path d="M0 0 C0.66 0.66 1.32 1.32 2 2 C1.34 2 0.68 2 0 2 C0 2.66 0 3.32 0 4 C-1.8125 5.0625 -1.8125 5.0625 -4 6 C-4.99 5.67 -5.98 5.34 -7 5 C-5.73223544 2.46447088 -4.53176935 2.15080425 -2 1 C-1.34 0.67 -0.68 0.34 0 0 Z " fill="#F8E4E0" transform="translate(202,57)"/>
<path d="M0 0 C1.5625 1.1875 1.5625 1.1875 3 3 C2.6875 5.6875 2.6875 5.6875 2 8 C1.01 8 0.02 8 -1 8 C-0.67 5.36 -0.34 2.72 0 0 Z " fill="#7589AE" transform="translate(179,51)"/>
<path d="M0 0 C4.875 4.75 4.875 4.75 6 7 C4.68 7 3.36 7 2 7 C1.87625 6.360625 1.7525 5.72125 1.625 5.0625 C1.315625 4.0415625 1.315625 4.0415625 1 3 C0.34 2.67 -0.32 2.34 -1 2 C-0.67 1.34 -0.34 0.68 0 0 Z " fill="#3D5883" transform="translate(113,110)"/>
<path d="M0 0 C1.32 0.33 2.64 0.66 4 1 C3.67 2.32 3.34 3.64 3 5 C2.01 5 1.02 5 0 5 C0 3.35 0 1.7 0 0 Z " fill="#7391AF" transform="translate(186,81)"/>
<path d="M0 0 C0.28875 0.639375 0.5775 1.27875 0.875 1.9375 C1.82823451 4.15206079 1.82823451 4.15206079 4 5 C4 5.99 4 6.98 4 8 C2.0625 7.3125 2.0625 7.3125 0 6 C-0.8125 3.4375 -0.8125 3.4375 -1 1 C-0.67 0.67 -0.34 0.34 0 0 Z " fill="#FBC8C4" transform="translate(172,78)"/>
<path d="M0 0 C0.33 0.99 0.66 1.98 1 3 C1.66 3 2.32 3 3 3 C3 3.66 3 4.32 3 5 C3.66 5.33 4.32 5.66 5 6 C4.01 6 3.02 6 2 6 C2 6.66 2 7.32 2 8 C1.34 8 0.68 8 0 8 C0 5.36 0 2.72 0 0 Z " fill="#E69C9C" transform="translate(148,75)"/>
<path d="M0 0 C2.475 0.495 2.475 0.495 5 1 C5.33 1.99 5.66 2.98 6 4 C7.98 4 9.96 4 12 4 C12 4.33 12 4.66 12 5 C9.69 5 7.38 5 5 5 C4.731875 4.360625 4.46375 3.72125 4.1875 3.0625 C3.11332248 0.66868314 3.11332248 0.66868314 0 0 Z " fill="#FEDDD8" transform="translate(143,56)"/>
<path d="M0 0 C1.32 0.99 2.64 1.98 4 3 C3.67 3.99 3.34 4.98 3 6 C2.01 6.33 1.02 6.66 0 7 C-1.04449911 3.86650268 -0.93423645 3.01031744 0 0 Z " fill="#304C79" transform="translate(133,49)"/>
<path d="M0 0 C2.31 0.66 4.62 1.32 7 2 C6.01 2.495 6.01 2.495 5 3 C4.67 3.99 4.34 4.98 4 6 C3.67 5.01 3.34 4.02 3 3 C2.01 2.67 1.02 2.34 0 2 C0 1.34 0 0.68 0 0 Z " fill="#35537D" transform="translate(162,42)"/>
<path d="M0 0 C1.32 0 2.64 0 4 0 C4.33 0.99 4.66 1.98 5 3 C4.34 3 3.68 3 3 3 C2.67 3.66 2.34 4.32 2 5 C1.01 5.495 1.01 5.495 0 6 C-1.125 2.25 -1.125 2.25 0 0 Z " fill="#193D6C" transform="translate(158,42)"/>
<path d="M0 0 C2.64 0 5.28 0 8 0 C8 0.66 8 1.32 8 2 C8.99 2.33 9.98 2.66 11 3 C9 4 9 4 6.8359375 3.44140625 C6.02382812 3.15136719 5.21171875 2.86132812 4.375 2.5625 C3.55773437 2.27503906 2.74046875 1.98757812 1.8984375 1.69140625 C1.27195313 1.46324219 0.64546875 1.23507813 0 1 C0 0.67 0 0.34 0 0 Z " fill="#F9B8B8" transform="translate(170,22)"/>
<path d="M0 0 C2.64 0.33 5.28 0.66 8 1 C8 1.33 8 1.66 8 2 C6.88625 2.309375 5.7725 2.61875 4.625 2.9375 C1.2054845 3.82326483 1.2054845 3.82326483 -1 5 C-1.33 4.01 -1.66 3.02 -2 2 C-1.34 2 -0.68 2 0 2 C0 1.34 0 0.68 0 0 Z " fill="#D44348" transform="translate(166,91)"/>
<path d="M0 0 C0.99 0 1.98 0 3 0 C2.67 1.98 2.34 3.96 2 6 C1.34 6 0.68 6 0 6 C-0.38218767 4.34385343 -0.71395102 2.67542976 -1 1 C-0.67 0.67 -0.34 0.34 0 0 Z " fill="#CD2030" transform="translate(87,84)"/>
<path d="M0 0 C2.475 0.99 2.475 0.99 5 2 C4.34 3.32 3.68 4.64 3 6 C1.68 5.67 0.36 5.34 -1 5 C-0.01 5 0.98 5 2 5 C2 4.34 2 3.68 2 3 C1.34 3 0.68 3 0 3 C0 2.01 0 1.02 0 0 Z " fill="#CE323B" transform="translate(165,67)"/>
<path d="M0 0 C0.33 0.66 0.66 1.32 1 2 C3.02463255 2.65213292 3.02463255 2.65213292 5 3 C4.67 3.99 4.34 4.98 4 6 C3.01 5.67 2.02 5.34 1 5 C1 4.34 1 3.68 1 3 C0.01 2.67 -0.98 2.34 -2 2 C-1.34 2 -0.68 2 0 2 C0 1.34 0 0.68 0 0 Z " fill="#1E3E6B" transform="translate(209,60)"/>
<path d="M0 0 C1.32 0.33 2.64 0.66 4 1 C3.34 2.98 2.68 4.96 2 7 C1.34 7 0.68 7 0 7 C0 4.69 0 2.38 0 0 Z " fill="#C73F40" transform="translate(139,59)"/>
<path d="M0 0 C2.1385485 2.1385485 2.42655063 3.13275314 3 6 C2.34 6 1.68 6 1 6 C1 5.34 1 4.68 1 4 C-0.98 4.99 -0.98 4.99 -3 6 C-3.33 5.34 -3.66 4.68 -4 4 C-3.34 4 -2.68 4 -2 4 C-2 3.34 -2 2.68 -2 2 C-1.34 2 -0.68 2 0 2 C0 1.34 0 0.68 0 0 Z " fill="#234679" transform="translate(168,47)"/>
</svg>
